<svg id="Layer_1" data-name="Layer 1" xmlns="http://www.w3.org/2000/svg" viewBox="0 0 1001 1001"><defs><style>.cls-1{fill:#1b1615;}.cls-2{fill:#010101;}.cls-3{fill:#fefefe;}.cls-4{fill:#453a34;}.cls-5{fill:#221612;}.cls-6{fill:#2a1711;}.cls-7{fill:#3c2119;}.cls-8{fill:#5d4d47;}.cls-9{fill:#110706;}.cls-10{fill:#190404;}.cls-11{fill:#161211;}.cls-12{fill:#332b29;}.cls-13{fill:#41352e;}.cls-14{fill:#2a1d17;}.cls-15{fill:#221c1a;}.cls-16{fill:#1d1b1c;}.cls-17{fill:#2e2622;}.cls-18{fill:#231c19;}.cls-19{fill:#1f1918;}.cls-20{fill:#201a18;}.cls-21{fill:#1d1716;}.cls-22{fill:#2d1c18;}.cls-23{fill:#735449;}.cls-24{fill:#37231e;}.cls-25{fill:#1e1815;}.cls-26{fill:#504d49;}.cls-27{fill:#3b2b27;}.cls-28{fill:#544741;}.cls-29{fill:#a6928f;}.cls-30{fill:#8c7270;}.cls-31{fill:#947c7b;}.cls-32{fill:#aba59d;}.cls-33{fill:#b8b4ad;}.cls-34{fill:#d0ccc2;}.cls-35{fill:#9d9390;}.cls-36{fill:#d4d2cc;}.cls-37{fill:#a69f9b;}.cls-38{fill:#0c0604;}.cls-39{fill:#392f2a;}.cls-40{fill:#c5aba3;}</style></defs><rect width="1001" height="1001"/><path class="cls-1" d="M747,718.53c-1.46-1.52-2.21-3.13-.52-5,.52-.57.14-1.2,0-1.73a5.33,5.33,0,0,1,1.5-5.44c.56-.59,1-1.09.67-2-.77-2,.22-3.54,1-5.33,1.3-3.09,2-6.42,3.06-9.61,1-3,2.44-6,3.21-8.95,1.43-5.63,4.58-10.79,4.69-16.76a5.05,5.05,0,0,1,1.12-2.85c.86-1.27,2.43-2.5.52-4.17-.34-.29-.2-.52.13-.81,4.27-3.58,5-8.86,6.48-13.76.65-2.17,1.56-2.92,3.76-2.88,5.46.11,10.8,1.17,16.19,1.74s10.56.17,15.83.38a6.2,6.2,0,0,1,4,1.42c1.39,1.12,1.91,1.8.42,3.13a1.14,1.14,0,0,0-.26,1.6,1.09,1.09,0,0,0,.47.38c2.37,1.35,1.08,2.65,0,4s-3.3,2.2-1,4.28c.44.4,0,1-.31,1.4-1.17,1.24-.65,2.82-1,4.1-.65,2.65-1.26,4.77.95,6.93.41.4-.48,1.17-.91,1.71-1.43,1.77-3.39,3.37-1.71,6.09.44.71-.14,1.48-.72,2.09-1.49,1.49-1.57,3,0,4.53,1.3,1.3.9,2.33-.2,3.56-1.68,1.88-3.39,3.82-2.14,6.71A2.09,2.09,0,0,1,802,695a5.2,5.2,0,0,0-.81,5.37c.46,1.22-.28,2.18-1,3.08-1.31,1.74-1.57,3.37.1,5.1,1.44,1.51.79,2.88-.37,4.35-1.36,1.72-3.36,3.13-3.37,5.65H754.34a6,6,0,0,0-5.22,0Z" transform="translate(1 1)"/><path class="cls-2" d="M749.1,718.53c1.74-1.62,3.47-1.62,5.21,0Z" transform="translate(1 1)"/><path class="cls-3" d="M874.12,310.54a67.77,67.77,0,0,1,8,5.22c9.8,8.08,9.31,20-1,27.4-7.46,5.32-15.89,8-24.81,9.25-14.46,2-28.55.75-42-5.35a37.84,37.84,0,0,1-8.34-5.29c-7-5.76-10.86-15.35-2.15-25,1.75-3.27,5-4.84,8-6.31a71.85,71.85,0,0,1,28.49-7,75.28,75.28,0,0,1,29.27,4.69C871.22,308.73,873,309.06,874.12,310.54Z" transform="translate(1 1)"/><path class="cls-4" d="M631.35,529.28a2.07,2.07,0,0,1,.43.1,3.82,3.82,0,0,1,.8,2.43c-.15,4,.84,7.93.53,11.93.1,2.74-.18,5.49.4,8.2a13.57,13.57,0,0,1-.07,3.37c-.11.6-.3,1.24-1,1.29s-1-.52-1.33-1.07a1,1,0,0,1-.18-.49c.19-4.75-3-9.1-1.67-14a6.83,6.83,0,0,0-.15-2.61c-.52-4.09-1.16-4.47-4.92-3-2.48,1-4.24,0-5.08-2.72-.8-2.61-.2-5.35-.62-8.09a12,12,0,0,0-.66,10.23,26.64,26.64,0,0,0,3.35,6.68c.64.87,1,2.09.18,2.9-2.43,2.39-1.25,4.75-.19,7.17a13.89,13.89,0,0,0,.7,1.39c1.69,3,1,4.34-2.5,4.74-1.6.19-2.12,1.25-2.69,2.45-1,2.09-1.81,2.19-3.48.56-.43-.43-.76-1-1.22-1.36-1-.86-1.79-2.36-2.91.11-.74,1.66-3.2,1.11-4.12-.76a15.35,15.35,0,0,1-.68-2.77c-.35-1.34-.85-2.49-2.57-2.37a1.64,1.64,0,0,1-1.84-1.4s0,0,0-.07a1.85,1.85,0,0,1,1.25-2.28h0c1.47-.44,2.61-1.77,4.37-1.43,1,.21,1.51-.46,1.25-1.38-.62-2.2.25-4.28.34-6.41a50,50,0,0,0-.86-11.65,38.85,38.85,0,0,1-.46-10.1c.27-3.71.86-7.4.48-11.14-.1-1,.47-1.84.6-2.78a1.76,1.76,0,0,0-.79-1.81.67.67,0,0,0-.94.05,1.31,1.31,0,0,0,0,1.85l0,0c1.34,1.5,1,2.55-.72,3.43a3.8,3.8,0,0,0-2,3.91c.31,4.76-.92,9.49-.1,14.28a15.86,15.86,0,0,1-.61,6.42,15.43,15.43,0,0,0,1,9.9,6.55,6.55,0,0,1,1,2.67c-.05,1.7-.64,3.13-2.41,3.61s-2.53-.88-3.08-2.18c-1.43-3.42-1-7-.69-10.54.34-3.28.73-6.55,1.23-9.81a11.74,11.74,0,0,0-.52-6.16,11.82,11.82,0,0,1-.38-5.88c.91-8,2.25-16.16.45-24.09-1.94-8.5-1.66-17.2-3.31-25.71-.72-3.72-1.14-7.47-2.47-11-1-6.42-3.33-12.51-5-18.77,0-.78.07-1.68,1-1.88s1.15.63,1.5,1.21c.87,1.43,2,2.45,3.78,2.14,2-.35,3.06.68,3.82,2.33a50.34,50.34,0,0,1,2.65,7.82,14.74,14.74,0,0,0,1.24,3.4c.34.6.72,1.33,1.51,1.21s1-1.05,1.22-1.8a7.6,7.6,0,0,0-.35-2.8c-.12-.76-.28-1.56.62-2,1.51.83,1.66,2.4,1.9,3.8.88,5,2.7,9.84,2.61,15a17.71,17.71,0,0,1-.48,4.88c-.23.77-.61,1.5-1.53,1.56s-1-.75-1.42-1.32c-2.56-4-4-8.45-5.35-12.92-.19-.61,0-1.92-1.17-1.57a1.64,1.64,0,0,0-.85,2.16l0,.07c1.15,2.7,1.32,5.77,3.17,8.21a16.7,16.7,0,0,1,1.93,4,5,5,0,0,0,1.91,2.74c4.09,2.08,4.48,6.11,5.17,9.9.77,4.27,1.29,8.58.52,12.92a1.71,1.71,0,0,0,0,.78c2.73,9.3,2,18.76,1.42,28.25a2,2,0,0,0,.34,1.44,2.6,2.6,0,0,0,.32-2.19,6.09,6.09,0,0,1,1.15-4.69,4,4,0,0,0,.69-3.21,38.21,38.21,0,0,1,.33-12.8,8,8,0,0,0,.22-2.84c-1.59-10-.11-19.85,1.23-29.71.71-5.21.94-10.53,2.74-15.59.64-1.8.38-3.81.22-5.69-.27-3.28,1.19-6,2.41-8.82.85,1.34.41,2.82.43,4.23a35.33,35.33,0,0,0,.5,6.33c-.41,7.15-.28,14.32-.73,21.47-.31,5,.79,9.9.64,14.81-.16,5.82.68,11.6.38,17.4a4.26,4.26,0,0,0,2.29,4.5c3.64,2.08,4.11,6,4.33,9.53.29,4.76.43,9.53.76,14A2.66,2.66,0,0,1,631.35,529.28Z" transform="translate(1 1)"/><path class="cls-5" d="M832.49,584.06c-.56.11-1.21-.21-1.78.43,4,2.33,8.34,4.07,12.23,7a2.72,2.72,0,0,1-2.69.07c-4.69-2.94-10-4.66-14.83-7.43-3.59-2.08-6.78-4.66-10.16-6.91-2.63-1.75-6-2-9.15-2.44a2.17,2.17,0,0,0-2.12,1.28c-.4.9.34,1.43.86,2,3.88,4.17,8.94,6.5,14.08,8.48,5.46,2.09,10.64,4.82,16,7.12.44.2,1.11.36,1,1.05s-.76.45-1.28.41c-4.07-.29-7.15-2.94-10.69-4.47-5.28-2.29-10.31-5.14-15.55-7.51-1.74-.79-3.07-2.27-5-2.68-.52-.1-1-.52-1.46-.48-1.24,0-2.92-.72-3.55.74s.63,2.46,1.76,3.36c3.22,2.61,5.28,6.43,9.14,8.34,3.48,1.72,6.91,3.53,10.34,5.34,1.11.58,2.16,1.29,3.34,2a1.74,1.74,0,0,1-2.17.1c-4.74-2.29-9.77-4.07-13.91-7.39-2-1.6-3.55-3.69-5.77-5.1-3-1.93-6.47-1.91-9.77-2.13a26,26,0,0,1-8.07-1.69c-4.93-2-9.9-3.56-14.67-6.26-4.25-2.43-9.47-4.53-15.11-2.35-2.47.95-5.22-.74-7.73-1.47-5.74-1.67-11.27-3.53-17.54-1.74-8.89,2.55-18.12,3.31-27.39,3.54-6.12.15-12.33.13-18.33,1.18a102.39,102.39,0,0,1-14.62,1.44c-2.67.09-5.06-1.33-7.67-1.08-5.1.49-10.11-.79-15.12-.78-3.56,0-6.91-1.29-10.45-.84-2.79.35-5.13-1.63-8-1.7-9.34-.24-18.44-2.77-27.75-3.3-2.26-.12-4.63.33-7,.36-1.3,0-1.86-.24-1.5-1.82.57-2.46-.91-4.65-1.42-7-.9-4.12-2-8.18-3.08-12.25a17.46,17.46,0,0,0-1.56-4.65c-2-3.39-1.17-4.81,2.88-5.13.57,0,2.2,1.19,1.84-.93.66-.59,1.22-.24,1.78.17a1.8,1.8,0,0,1,.6,1.38c-1.25.95-1.81,1.75-.24,3.13,1.79,1.59,2.14,4,2.72,6.29.77,5.24,1.32,10.51,2.12,15.74.39,2.6,1.12,3.24,3.77,3.18,2.15-.05,4.28-.29,6.46-.24,7,.15,14,1.16,21,1.37,2.08.06,3.64-1,5.39-1.59.95-.34.35-1.84,1.19-2.46,1.23.12,1.09,1.15,1.27,1.94.52,2.36,1.56,3.38,3.91,3.22,9.77-.66,19.58.48,29.32-.27,5.44-.41,10.94,1,16.27-.52,4.7-1.29,9.43-2.2,14.19-3a4.06,4.06,0,0,1,.84-.25,23.27,23.27,0,0,0,5.85-1.05,25.66,25.66,0,0,1,4.72-.2,11.55,11.55,0,0,0,5.69-.32,18.45,18.45,0,0,1,3.48-.22c2.35.3,4.59-.37,6.87-.73a6.82,6.82,0,0,1,2.81-.05c.92.23,1.73.83,2.73.77,3.74-.22,6.61,1.48,9.29,3.9s4.62,2.71,7.66.46,6.52-1.56,9.77-1q9.38,1.51,18.76,2.79c3.65.52,7.17,1.76,10.88,2.27,4.47.62,8.76,0,13.16-.2,5.54-.31,11.47-1.19,16,3.5a4.72,4.72,0,0,0,2.08,1c3,3,6.47,5,10.79,5.21a4.81,4.81,0,0,1,2.23.52c.17.11.23.21.17.32S832.52,584.06,832.49,584.06Z" transform="translate(1 1)"/><path class="cls-6" d="M632.38,544c.06-4.87-.87-9.7-.6-14.59,11.8,4,24,6.22,36.22,8.34,8.41,1.47,16.87.79,25.31,1-.26,1.18.57,1.47,1.42,1.78a44.59,44.59,0,0,0,12.4,2.6,84,84,0,0,1,19.4,3.33c2.56.77,5.19.52,7.76.38,4.55-.27,8.28,1.44,11.66,4.2a13.71,13.71,0,0,0,3.77,2.28c5.46,2.06,10.55,4.86,15.75,7.43,5,2.46,10,4.7,15.64,5.22.95.6,2.8.62,2.44,2.15s-2,1.19-3.13,1c-3.44-.66-7-.52-10.27-2.18-3.37-2.72-7.58-3.34-11.56-4.41-4.52-1.23-9-2.51-13.49-3.9-8.37-2.61-16.68-5.29-25.57-5.6a6,6,0,0,1-3.24-.81c-5.9-3.92-12.62-4.81-19.42-4.82-4.41,0-8.82-1-13.23-.14a7,7,0,0,0-1.57.26c-4.89,2.36-10.17,1.59-15.32,1.86-3.81.19-7.65-.25-11.44.41a1.71,1.71,0,0,1-.78,0c-6.15-2-12.87-2.12-18.67-5.32A6.44,6.44,0,0,0,632.38,544Z" transform="translate(1 1)"/><path class="cls-7" d="M780.89,566.38c-4.13.78-7.64-1.39-11.11-2.84-7.19-3-13.91-7.06-21.18-9.95-3.05-1.22-5.09-4.17-8.34-5.21-.89-.29-1.7-.9-2.71-.78-7.29.89-14.19-1.33-21.16-2.86a20.94,20.94,0,0,0-5.11-.6c-4.69.24-9-1.35-13.58-1.85-2.09-.23-4.05-1.4-6.07-2.14.06-1.15,1.37-.64,1.69-1.39,7.3.66,14.6,1.66,21.89,1.87,6.94.19,13.71,2.15,20.64,1.72,12-.76,24.17-.64,36-3.43,4.05-1,8.09.33,12.06,1,5.28.92,10.62,1.25,15.92,1.75,3.41.32,5.64,2,7.89,4,2.79,2.42,5.37,5.09,8,7.66.76,1.22,1,2.49-.18,3.53s-2.08.11-3.1-.31c-1.69-.69-3.13-1.8-4.74-2.64-4-4.22-9.3-4.83-14.62-5.33a35.82,35.82,0,0,0-6.71-.07,85.26,85.26,0,0,1-10.36,0c-4.26-.1-8.18,1.39-11.87,3.31-2.38,1.25-2.42,2.45-.35,4.13a43.93,43.93,0,0,0,14.66,7.61c1.47.47,3.08.58,4.12,1.94C782.58,566.9,781.8,566.78,780.89,566.38Z" transform="translate(1 1)"/><path class="cls-8" d="M622,439.11c-2.3,5.77-1,12.08-2.85,18-1.27,4.13-1.34,8.65-1.91,13a106,106,0,0,0-1.38,11.78c-.11,5.11-1.26,10.27.14,15.39a9.27,9.27,0,0,1,0,4.38,34.29,34.29,0,0,0-.37,12.81c.24,1.48.52,3.13-1.18,4.21a2.41,2.41,0,0,0-.82,2.11,15.7,15.7,0,0,0,.31,2.56c.23,1.19,0,2.93-1.2,3s-1.35-1.61-1.16-2.68c.6-3.53.24-7.1.55-10.61.38-4.32-1.26-8.59-.11-12.9a.94.94,0,0,0-.12-.75c-2.39-3-1.51-6.36-1.4-9.68.14-4.93-1.25-9.65-2.14-14.43-.19-1-1.08-1.51-1.92-2-2-1.15-3.12-3-4.17-5.05-1.92-3.75-3.42-7.65-5-11.51-.44-1,1.35-4.34,2.4-4.33.64,0,.86.52.93,1,.53,3.52,2,6.72,3,10.09.62,2.13,2.72,3.38,2.93,5.73.06.71.9.4,1.11-.1a5.13,5.13,0,0,0,.38-2c-.06-4.33.61-8.72-1.25-12.91a17,17,0,0,1-.9-4.54,11.28,11.28,0,0,0-1.6-4.85c-2-2.17-2.42-4.9-2.43-7.65,0-1.49,1.39-2,2.87-1,1.76,1.22,2.58.24,2.7-1.17.24-2.82,2.08-4.62,3.48-6.78,1.66-2.5,3.07-5.17,4.7-7.71a9.77,9.77,0,0,1,3.28-3.24c.9-.52,1.92-.71,1.64,1-1.42,4.17.56,8.16.75,12.25C621.3,433.47,622,436.26,622,439.11Z" transform="translate(1 1)"/><path class="cls-9" d="M782.41,565.34A46.31,46.31,0,0,1,762.82,556c-2.08-1.74-2.18-2.74.1-4.17a24.44,24.44,0,0,1,14.32-3.93c2.85.14,5.78.66,8.69-.16a14.57,14.57,0,0,1,6.31.06c5,.93,10.94-.22,14.69,4.76a4.51,4.51,0,0,0,1,.75c2.61,2.75,6.25,4,9.13,6.37,1.53,1.28,3.13,2.46,4,4.33.53,1,1.62,1.25,2.47,1.8,1.27,1.15,1.2,2-.39,2.87a26.56,26.56,0,0,0-2.7,1.88c-2.79-1.56-5.48-3.34-8.59-5.33.16,2,1.22,2.83,2,3.83s1,1.82.38,2.86a2.65,2.65,0,0,1-2.7,1.18,7.66,7.66,0,0,1-6.65-4.73c-1-2.29-2.26-3.64-5-3.57-2.92.1-5.15-1-5.85-4.28-.34-1.61-1.63-2.83-2.83-4-.52-.48-1.11-1-1.77-.35a1.14,1.14,0,0,0,.25,1.65c2.93,2.5,4.1,6.41,7.1,8.86a6.37,6.37,0,0,1,1.42,1.51c.43.66.89,1.39.42,2.16s-1.23.38-1.9.44c-5.07.53-9.15-2.08-13.37-4.24C782.9,566.3,782.77,565.73,782.41,565.34Z" transform="translate(1 1)"/><path class="cls-10" d="M947.63,396.37a46.15,46.15,0,0,1-2.16-13.69c.08-4-1.56-7.75-2.26-11.64-.59-3.22-1.44-6.39-2.12-9.59-.52-2.43.82-4.08,2.79-5a5.1,5.1,0,0,0,3.26-5.56c-.18-2.86-.06-5.71,1.4-8.34.86-1.57,1.41-1.49,2.88-.27,2.71,2.27,3.93,5.44,5.55,8.29,1,1.68,1.48,3.44,3.1,4.81a3.59,3.59,0,0,1,.91,3.86c-.83,2,.14,3.42,1.39,4.61,1.75,1.67,2,3.28,1,5.51a14.38,14.38,0,0,0-1.09,6.57c0,.89.2,1.89,1.13,2.16,2.2.65,2,2.61,2.45,4.17.18.63.21,1.54-.61,1.79s-1.22-.33-1.48-1.09c-.21-.6-.33-1.56-1.25-1.36s-.61,1.1-.82,1.73c-1,3-1.79,5.93-1.16,9.28.38,2.08-1.4,2.16-3,1.18-.14-.41.07-.62.45-.71-.19-.1-.32.05-.46.11-2.65,1-5.26,2.08-8,2.91C948.94,396.33,948.33,396.85,947.63,396.37Z" transform="translate(1 1)"/><path class="cls-11" d="M588,665.88c.25-1.16,2.77-1.16,1.76-2.65-.73-1.09-2.35-.31-3.65-.12-5.21.75-10.12-.78-14.83-2.77-3-1.28-6.37-1.72-9.07-4.05-1.48-1.27-4-.28-6,0-1.32.17-3.37,1-3.65-.52s2-1.79,3.24-1.77c2.76.06,4.89-1.61,7.29-2.44a21,21,0,0,1,12.21-.67,16.36,16.36,0,0,0,11.14-1.05c6.77-3.36,13.95-5,21.26-6.3.75-.13,1.71,0,1.61-1.16s-1.08-.94-1.8-.93c-1.82,0-2.32-.52-2-2.55.48-2.72-2.3-3.06-4-3.9-2.2-1.11-4.69-.91-7.14-.88-.7,0-1.84.28-1.78-.86,0-.84,1-.65,1.73-.68,4.31-.21,8.53-1.46,12.88-1,.8.08,2-.52,2.31.52s-1.08,1.11-1.75,1.56c-.42.29-.88.53-2.15,1.26,3.17.2,3.6,3.47,6.34,3.45-.52,1.77-1.89,1-2.88,1.07a6,6,0,0,1,3.44,2.35,2.61,2.61,0,0,0,2.31,1.47c2.88-.3,5.91.14,8.57-1.51a17.16,17.16,0,0,1,4.41-1.56,1.91,1.91,0,0,1,2.46.9,1.71,1.71,0,0,1-.87,2.24,74.71,74.71,0,0,1-8.11,5.06,5.72,5.72,0,0,0-2.84,2.16c-3,5.55-7.82,7.81-13.93,7.72-5.89-.07-11.82.59-17.66-.46A66.23,66.23,0,0,1,576.1,655c-1.78-1.09-3.78-1.71-5.63-2.67a3.6,3.6,0,0,0-4.38.52c3.79,2.2,6.56,5.73,10.66,7.19,2.6.91,5.46.68,8.22,1a28.19,28.19,0,0,0,3.9,0,3.53,3.53,0,0,1,3.92,2.7,2.93,2.93,0,0,0,3.2,2.42c.81,0,2,.07,2,1.21a1.76,1.76,0,0,1-1.78,1.63c-5.33.47-9.9,3.13-14.59,5.21-1.88.84-4,.84-5.93,1.87,2.93,2.09,9,2.25,11.66.47,1.64-1.1,3.3-2.3,5.45-1.3-3.12,3.16-7,5.35-10.71,7.62a1.6,1.6,0,0,1-2.56-.63,6,6,0,0,0-4.11-3,2,2,0,0,1-.94-.44c-2.23-2.08-4.69-3.28-8-1.56l0-1,8.08-4.16c2.42.81,4.44-.41,6.29-1.57C583.2,669.06,585.71,667.59,588,665.88Z" transform="translate(1 1)"/><path class="cls-12" d="M576.05,654.43c9.06,3.13,18.42,3.52,27.86,3.1a41.91,41.91,0,0,0,6.43-.61c3.22-.63,5-3.23,6.78-5.67,1.21-1.73,2.14-3.54,4.57-3.65a1,1,0,0,0,.7-.27c1.56-2.23,4.31-2.72,6.34-4.25.6-.45,1.78-.93,1.13-2-.52-.85-1.44-.58-2.32-.19-3.87,1.73-7.81,3.13-12.18,3.13-1.61,0-2.75-.28-3.44-2-.77-2-3.07-1.87-5.18-2.67,2-1.07,3.88.13,5.3-1a51.9,51.9,0,0,0,5.88-.74,7.46,7.46,0,0,0,5.32-3.68c1.43-2.61,3.9-4.75,7.1-4.23,2,.33,3.59,2.43,5.87,2.72a1.42,1.42,0,0,1,0,.71c-1,3.23.75,5.31,3,7.11a4.75,4.75,0,0,1,1.18,5.92c-.87,2-.86,5.32-4.54,5-.4,0-.85.49-1.27.77l-10.06,6.74c-1.12.61-1.57-.33-2.09-.95a2,2,0,0,0-3.16-.28,10.92,10.92,0,0,1-6.18,2.44,3,3,0,0,0-1.5.4c-4.11,3.35-8.94,2.27-13.51,2-5.59-.32-11.16-1.1-16.75-1.56-4.29-.36-7.82-2.67-11.32-4.9a1.77,1.77,0,0,1-.81-2.46c.59-1,1.49-.94,2.49-.52A39.88,39.88,0,0,0,576.05,654.43Z" transform="translate(1 1)"/><path class="cls-13" d="M812.69,622.37c-11.61.61-23-.77-34.49-1.3-.84,0-1.75-.12-1.25-1.29,1.86-4.38,2.68-9.11,4.69-13.44.47-1,.89-1.56,2.05-1.48a9.9,9.9,0,0,0,3.86-.41c8.42-2.64,15.46.8,22.47,4.85a20.15,20.15,0,0,1,5,4c.94,1-.52,2-1.09,2.69-.8.91-2.29,1.29-.36,2.55.71.46-.06.94-.4,1.14C812,620.45,811.87,621.37,812.69,622.37Z" transform="translate(1 1)"/><path class="cls-14" d="M782.41,565.34c5.06,2.4,9.78,5.95,16,4.54-.28-2.09-2.48-2.92-3.71-4.49-1-1.22-2.2-2.3-2.61-3.82-.52-1.94-3-2.08-3.4-4-.18-.83-.89-1.68.1-2.32a1.88,1.88,0,0,1,2.72.47c1.76,1.95,3.42,3.92,4,6.57a1.65,1.65,0,0,0,1.79,1.48A13.45,13.45,0,0,0,799,564c3.81-.37,5.65,1.67,6.93,5,1,2.48,3.49,3.18,5.94,3.6a1.93,1.93,0,0,0,2-1c.57-.82.12-1.43-.42-2.09a22.13,22.13,0,0,1-2.05-2.66c-.32-.52-1.13-1.56-.41-1.67s1.71-1.18,2.57-.21a12.09,12.09,0,0,0,5.69,3.76,1.9,1.9,0,0,1,1.25,1.87c.34,2.53-1.11,4.79-1,7.27-1,1-2,.57-2.64-.34-1.89-2.7-4.53-3.13-7.62-3.4a68.11,68.11,0,0,0-12.45.49,38.16,38.16,0,0,1-16.94-2.19c-2.7-1-5.61-1-8.41-1.21-4-.38-8-1.47-12-1.91-2.7-.3-5.39-1.22-8.16-.33a5,5,0,0,0-1.79,1c-3.06,2.53-6,2.5-8.89-.35-2.46-2.45-5.15-4-8.74-3.7a2.87,2.87,0,0,1-2.54-1c.84-1.09,2.09-1.11,3.28-1.31,7.22-1.24,14.35,0,21.51.72,3.45.33,6.91.61,10.37.77a13.35,13.35,0,0,1,6,1.38,31.48,31.48,0,0,0,12.81,1.56l-2.39-1.56C781.59,566.35,782.37,566.41,782.41,565.34Z" transform="translate(1 1)"/><path class="cls-15" d="M583.87,537.65c-1.88-.16-3.78-.27-5.65-.52-2.38-.29-4.82-.37-5.84-3.31-.78-2.25-3.64-3.58-3-6.75a4.56,4.56,0,0,0,3.16.4c.59-.14,1.48.42,1.68-.52s-.83-1.28-1.31-1.36c-2.09-.3-3.3-2.15-5.27-2.6-.78-.19-2.09-.91-.48-1.91,1.17-.72,3.13-1.32,2.83-2.64-.39-1.8-2.15-3.08-3.91-3.89-1.25-.56-2.57-.93-2.89-2.55,1.16-.62,1.92.2,2.69.62,1.39.77,2.85.61,4.31.59a2.87,2.87,0,0,0,2.56-1.92c.47-1-.15-1.81-.89-2.5-1.19-1.1-2.22-2.08.52-2.46,1.54-.21,2-1.31,1.18-2.7a10.08,10.08,0,0,1-1.25-4.69c-.12-3.16-2.84-4.82-4.48-7.09-1.3-1.8-2.27-3.89-4.11-5.3-.48-.38-.92-1-.52-1.56s1.13-.32,1.62,0c1.93,1.28,4,2.35,5.46,4.26.34,1.05,1.85,1.36,1.57,2.74-.75.49-.76,1-.19,1.69.89,1.08,1.68,2.22,2.52,3.32a5,5,0,0,1,1.33,3.31,1.27,1.27,0,0,0,.09.77c3.35,4.55,2.64,10.64,5.8,15.27a9.61,9.61,0,0,1,1.39,4.44,4.65,4.65,0,0,0,1.74,3.32c2.15,1.8,1.82,3.82-.61,5.15-.93.52-2,.55-3.32,1.13C584.11,531.89,584.22,534.69,583.87,537.65Z" transform="translate(1 1)"/><path class="cls-16" d="M874.12,310.54c-6.89-2.77-14-5.1-21.37-5.92-14.65-1.61-28.77.34-42,7.21a48,48,0,0,0-6.93,5c-.14-2.23,1.64-3.17,3.08-4.17,2.91-2,5.89-4.1,9.38-4.95,4.92-1.21,8.46-4.69,12.29-7.48a27,27,0,0,1,13.18-4.72c8.41-1,16.42.41,23.41,5.58,2.5,1.85,4.87,3.88,7.24,5.88A4.08,4.08,0,0,1,874.12,310.54Z" transform="translate(1 1)"/><path class="cls-8" d="M631.35,529.28v5.5h-.77c-1.23-3.39-1-7-1.28-10.53-.27-4,0-8.13-1.17-12.06a5.92,5.92,0,0,0-3.88-4.17,2.36,2.36,0,0,1-1.85-2.66c0-4.14-.31-8.31-.31-12.42,0-6.29-.49-12.54-.73-18.81-.22-5.55,1-11.06.47-16.58a17.81,17.81,0,0,1,1.08-7.88,215.41,215.41,0,0,1,4.79,27c1.22,10.14,2,20.3,2.91,30.47.22,2.5.15,5,.21,7.54.59,2.95-.2,6,.43,8.92C630.71,525.52,631.7,527.39,631.35,529.28Z" transform="translate(1 1)"/><path class="cls-17" d="M620.42,418.39c-.16-.63-.52-1.41-1.14-.67-1.08,1.25-2.33,2.34-3.37,3.65-2.33,2.9-3.13,6.74-5.95,9.2a3.83,3.83,0,0,0-1.62,3.59,4.52,4.52,0,0,1-.75,2.45c-.77,1.67-1.74,2.12-3.06.52-.43-.52-.75-1.29-1.62-.85s-.61,1.2-.52,2c.24,2.33,1.25,4.42,1.8,6.65-.39,1.89,1.52,3.56.52,5.54-.42.82-.52,2-1.63,2.15-1.27.19-1.73-.92-2.21-1.84-1.65-3.18-1.92-6.81-3.36-10.07-.93-2.08-1.3-4.22-4.65-3.25-1.61.47-3.1-1.18-3.73-3-.13-.38-.22-1-.78-.64-.25.16-.21.78-.31,1.19-1.72-.26-1.15-1.9-1.65-2.87-1.15-2.21-1.66-4.69-2.71-7a1.27,1.27,0,0,1,.29-1.66c.69-.48,1.1.06,1.47.56,1.6,3.94,1.6,4,5.68,3.73,1-.05,1.57.65,2.13,1.27s1.09,1.56,1.79,2.21c1.81,1.64,2.75,1.47,3.57-.86.68-1.93,1.45-3.24,3.81-3.51,1.56-.18,2.73-1.72,4.09-2.65,5.4-3.68,9.9-8.38,14.73-12.72,1.22-1.09.94-2.66,1.74-4.17,1.39,1.89,1.76,3.89,2.87,5.53.54.8-.71,1.45-1.35,1.94C623.07,416,621.36,416.72,620.42,418.39Z" transform="translate(1 1)"/><path class="cls-18" d="M823.6,565.86c-1.18.1-2.31,0-2.91-1.21-1.82-3.58-5.11-5.45-8.41-7.3a13.63,13.63,0,0,1-4.28-4c1.62.85,3.26,1.68,4.87,2.57,2.55,1.4,2.85,1.26,2.93-1.57v-1c1.57.92,2.92,1.51,2.64-1.33-.11-1.11.42-1.72,1.72-1.69,6.37.13,12.7,1,19.05,1.22,5.54.21,10.94,1.46,16.51,1.35a15.72,15.72,0,0,1,8.71,1.9c1.43.86,2.09,1.69,1.93,3.25-.75,1.62-2.18,1.83-3.73,1.8-4.07-.1-8.13-.38-12.2-.63-9.34-.56-18.7-.72-28-.63-2.09,0-2.7,1.12-1.57,2.84a16.62,16.62,0,0,0,1.74,2.87Z" transform="translate(1 1)"/><path class="cls-19" d="M576.05,654.43c-1.68.42-3-.72-4.4-1.2-.77-.26-1.56-.61-2.06.3a1.35,1.35,0,0,0,.82,1.92c4.35,2,8.31,4.83,13.52,4.82,4.7,0,9.39,1,14.13,1.34,3.38.23,6.78,0,10.17,0a.92.92,0,0,0,.69-.3c1.57-2.52,4.34-2.13,6.69-2.71a6.28,6.28,0,0,0,2.73-1.39c2.61-2.3,3-2.24,5.12.75a1.49,1.49,0,0,0,1.07.65c-1.8,1.68-4.07,2.48-6.45,3.68,1-2.42-.24-2.35-1.64-2-6.22,1.73-12,4.23-16.32,9.3-2,2.35-4.8,3.93-7.39,5.65a9.15,9.15,0,0,0-5.83,2.42,4.14,4.14,0,0,1-4.58.94c-2.21-.86-4.63-.46-6.85-1.22-.52-.17-1.08-.27-1.24-.82-.22-.81.64-.91,1-1.31.91-.9,2.15-.41,3.22-.72a48.57,48.57,0,0,0,8.1-3.45,26.15,26.15,0,0,1,8.6-2.61c1-.11,1.91-.14,2.37-1.19,0-.07-.07-.19-.13-.21-2.74-.87-3.78-1.64-5.84-4.51a2.27,2.27,0,0,0-2.28-.88c-3.73.32-7.42-.39-11.12-.58-3-.16-5.21-2.21-7.39-4-1.57-1.26-2.92-2.7-4.91-3.26-.53-.15-1-.35-1.11-.94-.08-.77.59-.89,1.14-1.18a4.94,4.94,0,0,1,5.55.3C572.88,653.09,574.82,653.07,576.05,654.43Z" transform="translate(1 1)"/><path class="cls-20" d="M583.84,484c1.27-.19,1-1.17,1-2,0-2.61.09-5.15-.78-7.71-.53-1.48-1-3.37.77-4.77a1.89,1.89,0,0,0,.22-2.61c-.9-1.18-.67-2.47-.75-3.74a13.42,13.42,0,0,1,4.17,9.29,43.37,43.37,0,0,1-.69,10.75c.86-7.82,1.54-17.8,2-28.05,2.08,1.62,2.08,3.84,2,12.44,0,7.37-.09,14.73,0,22.09.07,3.65-.48,7.25-.52,10.88-.09,4.85.34,9.67.57,14.51a37.6,37.6,0,0,0,.69,10,14.22,14.22,0,0,1,.17,5.4c-.26,1.39-.7,2.74-2.54,2.7-1.42-.85-1.4-2.29-1.42-3.64a154,154,0,0,0-3.07-26.66,23.57,23.57,0,0,0-2.65-7.5,33.27,33.27,0,0,1-1.59-4.09c-.35-1.27-.37-2.6,1.24-2.85a2.07,2.07,0,0,1,2.63,2.36v1a5.52,5.52,0,0,0-.93-4.2C583.87,486.64,583.06,485.42,583.84,484Z" transform="translate(1 1)"/><path class="cls-4" d="M583.35,495c2.61,2.83,3,6.51,3.59,10,1.48,8.51,2.83,17,2.71,25.72a10.38,10.38,0,0,0,.52,2.27c1.85,2.16,2.09,4.86.52,6.28l-1.59-.47c-1.69-.52-3.54-.29-5.16-1.13-.27-.49-1.14-.64-.84-1.45,1-2.61-.32-4.1-2.53-5.15-.52-.24-1.27-.45-1-1.24.18-.63.87-.46,1.35-.44a5.59,5.59,0,0,0,3-.76c2.15-1.17,2.32-2.69.27-4.08a4,4,0,0,1-1.86-3.37c-.31-3.65-2.55-6.72-3.83-10.08-.57-1.51-1.63-2.86-.91-4.65a1.71,1.71,0,0,0-.15-1.48c-3-3.37-2.85-8.47-6.56-11.39-.44-.34-1.09-.78-.74-1.5.46-1,1.22-.11,1.83-.18,2.61,2.4,5.21,4.79,7.65,7.37,2.14,2.28,2.35,5.51,3.64,8.22,1.1,2.31,2.31,4.59,3.24,7a31.34,31.34,0,0,0-1.18-9.43c-.69-2.69-1.13-5.43-2.08-8.05a2.18,2.18,0,0,1,0-1.77Z" transform="translate(1 1)"/><path class="cls-20" d="M585.44,424.09c-1-.47-1.7-.7-1.17.93.6,1.87,1.61,3.55,2.16,5.47A22.39,22.39,0,0,0,588,435c1.63,4.39,2.32,9.07,4.05,13.44a14.8,14.8,0,0,1,.64,5.32c1.93,5.33,2.42,10.95,3.07,16.51.52,4.45.7,9,1.24,13.41a47,47,0,0,1,0,8.8c-.21,3.28-.06,6.58-.45,9.84-.15,1.21-.32,2.61-1.85,2.78-1.69.19-2.08-1.28-2.52-2.49-.36-1-.34-2.22-.69-3.3.17-8.79.09-17.57.1-26.36v-4.91c.53-9.49-1.75-18.56-4.23-27.6-2-7.35-4.4-14.59-7.07-21.73-.27-.73-.43-1.51-.88-1.75,1.47,2.7,2.34,5.94,3.46,9.08.15.42.2,1-.31,1.11-.71.2-1.12-.35-1.34-.94-1.26-3.43-3.22-6.5-4.95-9.69-.62-1.14-1.17-2.32-1.9-3.4h0c-.3-.67-.91-1.26-.52-2.08,1.13-1,0-1.92-.07-2.87s-.74-1.91-.24-3C578.49,411,583.4,416.63,585.44,424.09Z" transform="translate(1 1)"/><path class="cls-21" d="M566.67,463.7c-1.5-.64-1.54-2.25-2.08-3.44-2.87-6.15-6.5-12-7.56-18.88-.18-1.2-.78-2.55.84-3.07s2,.87,2.49,2c.56,1.36,1.14,2.71,1.67,4.08s1.09,2.6,3,1.72c1.15-.52,2,.38,2.66,1.17a31.55,31.55,0,0,1,7.3,14.37c-1.29,1.45-.45,3,.08,4.31,1.42,3.4,2,7.2,4.63,10.06,1.27,1.36,1.19,3.36,2,5,.62,1.28-.52,1.68-1.57,1.57a3.86,3.86,0,0,1-2.66-1.93c-3.62-5.39-7.22-10.79-9.73-16.81-1-2.48-2-5-3-7.49a41,41,0,0,0-3.58-7.09c1.56,3.57,3.13,7.5,5.09,11.28C566.74,461.48,567.42,462.51,566.67,463.7Z" transform="translate(1 1)"/><path class="cls-17" d="M574.49,413.15c2.74,3.12,4.38,6.93,6.25,10.59.53,1,.8,2.27,2.09,3q-1.85-5.22-3.7-10.39l.78-.21c6.25,16.54,12.7,33,12.34,51.24a.69.69,0,0,1-1,0l0,0c-.1-3.79.31-7.61-.89-11.34-.14,5.21.12,10.51-.75,15.68s-.3,10.64-2.68,15.6c1.48-8.31,2.61-16.53-2.5-24.12-2.5-3.85-3.51-8.31-5.21-12.51-3.76-5.58-8.41-10.46-12.33-15.92-.73-1-2.25-2.17-1.12-3.3,1.34-1.34,2.46.33,3.4,1.23a37.43,37.43,0,0,1,3.42,3.12c.83-.25.43-2.18,1.93-1.29,1.92,6.45,5.11,12.41,7.36,18.76,1.46,4.12,2.33,8.49,5.17,12,1.9,2,1.32-.84,2.08-1.09,0-2.77,0-5.55,0-8.34.11-5.87-1.82-11.22-3.65-16.71-1.31-3.91-2.92-7.68-4.21-11.57-1.37-4.13-3.65-7.82-5.67-11.56A4.5,4.5,0,0,1,574.49,413.15Z" transform="translate(1 1)"/><path class="cls-20" d="M574.46,434.52c-.77.06-1.12.45-.88,1.21.18.58.57,1.27-.28,1.52-.7.21-.93-.6-1.34-1-1.47-1.45-3-2.87-4.46-4.29-.4-.37-.91-.74-1.39-.43-.74.53-.17,1.23.16,1.57,2.88,2.86,4.69,6.53,7.42,9.57,2.09,2.35,4.47,4.79,5.46,8-2.24-1.3-3.21-3.73-4.72-5.65-2.74-3.51-6.25-6.39-8.6-10.21a8.93,8.93,0,0,0-3.52-3.35c-2.24-1.14-3.29-3.24-4.38-5.28-.33-.61-.91-1.51-.29-2.2,1.91-2.11.89-4.37.44-6.6-.13-.68-.52-1.42.14-1.9a1.77,1.77,0,0,1,2.19.09c4,3.36,8.53,6.18,11,11.11C572.68,429.24,573.4,431.94,574.46,434.52Z" transform="translate(1 1)"/><path class="cls-22" d="M696.91,363c-.23,2-2,3.18-2.86,4.82-1.74,3.16-1.44,4.08,1.85,5.73.86.43,2.48,0,2.51,1.36.05,1.86,1,3.68.17,5.59-.61,1.48-1.29,2-2.94,1.27-1.93-.83-3.63-2.44-6-2.06-.7.11-1.11-.52-1.27-1.1-.83-3-1.41-5.94,1-8.51,3.28-3.44,4.4-8,6.51-12.11s2.22-8.4,2.08-12.81c0-1.39,0-3,1.33-3.72s2.83-.25,3.9,1a1.47,1.47,0,0,0,.84.4c1.63-2.08,3.71.14,5.46-.6.35,1.9-.55,2.87-2.37,2.71-1.59-.12-3.26.38-4.81-.67-1-.69-1.45.13-1.27,1.08.52,2.72-.37,5.35-.38,8,0,2-1.11,3.62-2.09,5.26A12.74,12.74,0,0,0,696.91,363Z" transform="translate(1 1)"/><path class="cls-4" d="M566.67,463.7c-1.23-4.34-3.95-8-5.3-12.32a10.2,10.2,0,0,1-.65-1.68c-.12-.92-1.49-2.24-.19-2.68s.7,1.39,1.17,2.09c4.66,7.2,6.47,15.75,10.8,23.12,1.71,2.89,4.3,5.17,5.64,8.34.26.63,1.14,1,1.77,1.46a1,1,0,0,0,1.21-.06c.55-.36.22-.76,0-1.13a81.35,81.35,0,0,0-3.78-7.23,32.06,32.06,0,0,1-3.87-11.31c-.23-1.37.66-1.09,1.45-.68A166.86,166.86,0,0,0,583.83,484a12.63,12.63,0,0,0,1.26,3.35c1.66,2.2,1,4.27-.19,6.45,0-1,0-2.09,0-3.13.06-1.62-1.19-1.94-2.23-1.78s-.78,1.2-.56,2.09c.33,1.32,1.35,2.43,1.21,3.9h0c-.79.28-1-.28-1.3-.83a63.77,63.77,0,0,1-2.85-6,132.87,132.87,0,0,0-7.95-15.59C569.6,469.69,568.19,466.66,566.67,463.7Z" transform="translate(1 1)"/><path class="cls-23" d="M696.91,363c-.57-2.61,1.4-4.41,2.22-6.55a25.93,25.93,0,0,0,1.26-10.87c0-.82-.7-1.66.41-2.25a1.59,1.59,0,0,1,2.24.52c1.41,1.62,3.46-.66,5,.68a5.26,5.26,0,0,0,1.47-2.23,2.54,2.54,0,0,0,.38-.16c.6-.16,1.19-.32,1.15.64,0,6.17.74,12.34,0,18.52a55.58,55.58,0,0,1-.63,5.88c-1.63-.28-2.48-2.18-4.44-2-.66.07-.67-1-.41-1.72a3.25,3.25,0,0,1,2.37-2.09c1,.1.85,1.16,1.54,1.76a3.34,3.34,0,0,0,.32-2.15c-.67-.61-1.37.61-2,0-.56-1.18.52-1.88.84-2.8.62-1.69,1.38-3.45-.13-5-2.7-2.85-4.1-2.61-5.77.91-.4.84-.63,1.82-1.67,2.16A38.76,38.76,0,0,0,696.91,363Z" transform="translate(1 1)"/><path class="cls-24" d="M708,361.5c-.26.69-.93,1-1.41,1.42s-.83,1-.6,1.6c.38,1.07.91,0,1.37.05,1.7.06,2.06,1.8,3.13,2.65-.19,1.56-1.2,2.57-2.61,3.91a3,3,0,0,0-1.59-3.36c-2.23-1.43-3.19-3.91-3.38-6.58,0-.41,0-.91.68-.8,2,.33,2.46-1.12,2.12-2.4s-1.41-2.64-3.31-1.79a3.67,3.67,0,0,1-1.28.07c.81-1.7,1.62-3.4,2.4-5.12.45-1,1-1.19,2-.69,4.69,2.42,6.18,3.7,2.76,9.45a4.08,4.08,0,0,0-.3,1.19c.11.1.15.18.1.27S708,361.5,708,361.5Z" transform="translate(1 1)"/><path class="cls-25" d="M579.18,488.17c1.83,2,2,5,4.17,6.78.76,3.09,1.42,6.2,2.32,9.25,1,3.23,1.18,6.57,1.8,9.85.12.65.25,1.57-.52,1.83-1,.29-1.35-.69-1.57-1.36-1.39-4.51-4.09-8.51-5.1-13.14-.36-1.63-1.57-2.37-2.67-3.33-2.11-1.87-4.48-3.52-5.73-6.18-.31-1-1.61-1.43-1.56-2.65,2.85,3,6.14,5.48,8.65,8.79.68.89,1.42,2.43,2.75,1.9s.56-2,.53-3.07c0-1.76-1-3.28-1.69-4.84C580,490.78,579,489.67,579.18,488.17Z" transform="translate(1 1)"/><path class="cls-9" d="M822.56,564.3c-2.34-.81-2.61-2.77-2.56-4.81,0-1.25,1-1.48,2-1.45,7.08.23,14.18.22,21.25.16,5,0,9.84,1.09,14.83.56a34.08,34.08,0,0,1,4.85.35,4.74,4.74,0,0,0,3.36-1c-.22,2.61-1,3.18-3.35,2.8-3.64-.59-7.4-.36-11.09-.58-9.38-.55-18.76-1.52-28.17-1.18a9.92,9.92,0,0,0-2.31.18c-.8.24-1.11,1.42-.35,1.47C824.2,561,822.75,562.83,822.56,564.3Z" transform="translate(1 1)"/><path class="cls-26" d="M684,324.37c1.09-4.53.76-8.92.9-13.28,0-.68-.08-1.44.91-1.56s1.2.57,1.46,1.19C688.64,313.86,686.78,321.93,684,324.37Z" transform="translate(1 1)"/><path class="cls-19" d="M588,665.88c.74.6.36,1.23-.24,1.39-3.59.94-5.85,4.28-9.38,5.21-1.29.34-2.76,1.61-3.88-.35,3.76-1.93,7.54-3.83,11.28-5.82A5,5,0,0,1,588,665.88Z" transform="translate(1 1)"/><path class="cls-27" d="M711.08,342.82a1.25,1.25,0,0,0-1.15-.64,6.82,6.82,0,0,0,2.2-4.47,9.81,9.81,0,0,1,2-5,1.59,1.59,0,0,1,2-.68c1,.49.5,1.3.25,2C715.32,337.4,712.88,339.91,711.08,342.82Z" transform="translate(1 1)"/><path class="cls-28" d="M721.47,329.66c-3.06-2.61-2.76-4.55,0-5.81,1.1-.5,1.62-.27,1.57,1C723,326.57,722.07,327.92,721.47,329.66Z" transform="translate(1 1)"/><path class="cls-29" d="M962.59,397.54c1.84-2,4.22-2.24,6.33-3.13.44-.18,1.27-.17,1.3.4a1.91,1.91,0,0,1-1.56,2.08C966.66,397.24,964.62,397.34,962.59,397.54Z" transform="translate(1 1)"/><path class="cls-30" d="M947.63,396.37,960.2,392c-.45,2-2.06.93-2.66,1.82l-11.31,3.8c-.27.07-.36,0-.26-.29Z" transform="translate(1 1)"/><path class="cls-31" d="M946.23,397.63a65.17,65.17,0,0,1-12.25,4,73.11,73.11,0,0,1,12-4.27A.73.73,0,0,0,946.23,397.63Z" transform="translate(1 1)"/><path class="cls-17" d="M574,411.06a3.48,3.48,0,0,1,.52,2.09c-2.17-1.67-2.87-4.3-4.75-6.94C572.32,407.41,572.41,409.87,574,411.06Z" transform="translate(1 1)"/><path class="cls-32" d="M842.92,260.91a2.48,2.48,0,0,1-2.18,1.36c-.67.1-1.3,0-1.34-.77,0-1.21,1.1-1.1,1.83-1.35a1.21,1.21,0,0,1,1.61.55A1.8,1.8,0,0,1,842.92,260.91Z" transform="translate(1 1)"/><path class="cls-33" d="M834.94,263a4.34,4.34,0,0,1-2.78,1.53c-.39.07-.63-.42-.52-.71a2.66,2.66,0,0,1,2.61-1.74C834.62,262,835,262.37,834.94,263Z" transform="translate(1 1)"/><path class="cls-34" d="M859.6,263.39c-.3.05-.58.19-.78.12-1-.33-2.09-.39-2.52-1.56-.12-.33.06-.8.46-.72C858,261.47,859.38,261.66,859.6,263.39Z" transform="translate(1 1)"/><path class="cls-4" d="M631.25,523.64c-1-2.93-.31-5.94-.43-8.91C631.67,517.64,631.15,520.65,631.25,523.64Z" transform="translate(1 1)"/><path class="cls-20" d="M589.08,464.23a11.33,11.33,0,0,1-.82,3.58,2.56,2.56,0,0,1-1.26-2.5C587.88,465.32,588.36,464.55,589.08,464.23Z" transform="translate(1 1)"/><path class="cls-14" d="M832.49,584.06v-.49c1.94,0,3.89-.14,5.74.81C836.21,585.11,834.37,584,832.49,584.06Z" transform="translate(1 1)"/><path class="cls-35" d="M851.72,261.65l-3.81-.86.15-.75C849.27,259.91,850.56,259.33,851.72,261.65Z" transform="translate(1 1)"/><path class="cls-36" d="M862.83,263.86A4.38,4.38,0,0,1,866,266.5C864.29,266.39,863.52,265.61,862.83,263.86Z" transform="translate(1 1)"/><path class="cls-37" d="M826.76,267.85c-.64-1.49.36-2,1.19-2.49a.5.5,0,0,1,.66.21.59.59,0,0,1,0,.23C828.57,267,827.62,267.31,826.76,267.85Z" transform="translate(1 1)"/><path class="cls-2" d="M755.55,713.52a1.43,1.43,0,0,1-1.13,1.19c-.52.12-1.21-.15-1.26-.59-.09-.86.85-.88,1.41-1.14C755,712.8,755.35,713,755.55,713.52Z" transform="translate(1 1)"/><path class="cls-2" d="M750,713.47c-.06.68-.36.85-.72.81a1,1,0,0,1-1-.91c0-.47.26-.92.76-.72A3.6,3.6,0,0,1,750,713.47Z" transform="translate(1 1)"/><path class="cls-38" d="M770.47,566.38c-9.44-.86-18.87-1.77-28.3-2.57a48.88,48.88,0,0,0-12.87,1c-3.34,0-6.53,1.39-9.91,1,.62-2.16,2.77-1.25,4.06-2-2.94-3.09-4.65-3.64-8.55-2.45a9.38,9.38,0,0,1-4.1.47c-4.66-.69-8.91.58-13,2.53a11.57,11.57,0,0,1-3.29.75,8,8,0,0,0-3.64,1.26c1.33.57,2.37.12,3.4,0,1.9-.16,3.83-.48,5.39,1-1.56,1.11-3.43,1-5.21,1.25-5.11.69-9.9,3.24-15.17,2.88-8.89-.61-17.76.45-26.65,0a63.54,63.54,0,0,0-14.11.4c-1.71.3-4-2.14-4-4,0-.76.2-1.57-.52-2.2-1.61-2.85-1.56-5.91-1-9a10,10,0,0,0,0-4.55c-.87-2.74-.4-5.54-.48-8.34.73-1.05,1.56-2.15,2.85-.86,2.45,2.46,5.7,2.84,8.82,3.32a41.14,41.14,0,0,1,5.77,1.41,18,18,0,0,0,8,.93c3.65-.47,7.48.14,11.18-.19,4.17-.36,8.44.28,12.6-1.66a12.23,12.23,0,0,1,7.87-.58c2.14.52,4.49.24,6.74.22A50.26,50.26,0,0,1,712,549.09a4.13,4.13,0,0,1,1.45.56c4.57,3.78,10.3,2.69,15.53,3.65a53.41,53.41,0,0,1,7,1.69c7.77,2.54,15.63,4.8,23.5,6.93C763.29,562.93,767.47,563.34,770.47,566.38Z" transform="translate(1 1)"/><path class="cls-39" d="M632.87,552.28c.75.69.52,1.62.49,2.45a82.37,82.37,0,0,0,.55,11.1v3.81c-.94-.11-1.89-1.49-2.64.24-.35.82-1.69.65-2.65.64-7.92-.11-15.8-1.08-23.71-1.47-1.87-.1-3.76.36-5.64.4-3.08.06-3.6-.61-4-3.65-.6-5-1.36-10-2-15a13.71,13.71,0,0,1,0-1.57c.85-2.67.71-5.16-1.36-7.29-.47-.48-.45-1.09-.7-1.62l-.53-1c1.05-2.2-.17-4.2-.52-6.28,2.09-.41,2.09-2.06,2.05-3.6,0-4.7-1.56-9.33-1-14.08,1.25-.1.82,1.33,1.72,1.83a42.21,42.21,0,0,0-.89-7.17c-.62-2.64-.41-5.33-.69-8a2.37,2.37,0,0,1,.91-2.27c1,1.28.23,3.09,1.38,4.34.35.39.57.89,1.2.76a1.09,1.09,0,0,0,1-1c-.19-1.71.42-3.32.29-5.08a36.74,36.74,0,0,1,.47-10c.7-3.28,0-6.4-.35-9.49-.44-4.27-.73-8.56-1.27-12.83s-1.65-8.31-2.17-12.48a2,2,0,0,1,1,1.66,122.64,122.64,0,0,1,3.08,22.16c.17,4.84,1.6,9.47,2.3,14.21s.1,9.34.17,14c.08,5.42-2.42,10.74-.06,16.29,1.14,2.68-.06,5.82-.43,8.73-.52,4.17-1.21,8.34-1,12.59a9,9,0,0,0,.71,3.28c.49,1.09.82,2.84,2.6,2s2.43-2.49,1.4-4.08c-2.16-3.35-2.4-7.06-2-10.72.26-2.16,1.32-4.31.88-6.54-1-4.93.4-9.82,0-14.73-.18-2.43.59-4.29,3.05-5.11,1.15-.38,1.21-.87.27-1.53-.52-.35-1.05-.63-1.17-1.31a2.81,2.81,0,0,1,.71-2.65,1.29,1.29,0,0,1,1.69-.06c1,.72,2.21,2.21,1.57,3-2,2.37-.32,4.92-.69,7.33a62,62,0,0,0-.77,9.81c0,4.85,1.28,9.56,1.47,14.39.08,2.23.58,4.5-.53,6.64-.76,1.49.13,2.88.38,4.27.35,1.9-.16,2.68-2,1.85-2.25-1-3.13,1.85-5.08,1.61-.29,0-.48,1-.11,1.61s.62.85,1.22.45c1.93-1.27,2.48.43,3,1.56a13.81,13.81,0,0,1,.65,3.55,2.13,2.13,0,0,0,2.36,1.9h0c1.28-.05,1.34-1.13,1.08-2.16-.1-.41-.39-.88.08-1.16s1,0,1.4.37a15.4,15.4,0,0,1,3.65,3.6c.81,1.18,1.56,1.2,2-.41.63-2.18,1.43-4.17,4.47-2.93.68.28,1.27-.78,1.74-1.38s.26-1-.28-1.56c-1.71-1.72-2-4.17-2.93-6.26a2.4,2.4,0,0,1,1.08-3c1.57-1.16,1.53-2.47.22-3.65-2.57-2.34-2.49-5.92-4.26-8.66-.86-1.32.35-3,.52-4.5a26,26,0,0,1,.66-3c.22-.95.08-2.53,1.39-2.32s.72,1.74.78,2.72c.14,2.41-.27,4.84.49,7.23s2.22,3.13,4.2,1.81c1-.66,2.19-.48,3.08-1.29.69-.62,1,.09,1.35.62a12.34,12.34,0,0,1,1.52,7.43c-.18,2.91-.87,5.83,1.12,8.51a3.23,3.23,0,0,1,.41,3.21,2.44,2.44,0,0,0,1,3.13C633.16,555,632.7,553.58,632.87,552.28Z" transform="translate(1 1)"/><path class="cls-2" d="M699.58,567.43c-2.8-1-5.61-.17-8.42,0-.62,0-1.6.36-1.74-.58-.11-.71.68-1.13,1.3-1.46a2.74,2.74,0,0,1,.94-.42c5.14-.58,9.71-3.22,14.77-4.09a7.71,7.71,0,0,1,2.79.12,9.93,9.93,0,0,0,5.35-.24c2.9-1,5.73-1.22,8.1,1.34a12.4,12.4,0,0,0,2.18,1.49c-1.29,2.18-4.06.64-5.47,2.29h-3.65c-1.73.26-3.56-.47-5.21.52h-5.21c-1.89.52-3.94.11-5.74,1Z" transform="translate(1 1)"/><path class="cls-20" d="M591.17,540.28c.62.43.74,1.38,1.63,1.56,1.19.23,1.56.86,1.07,2a2.11,2.11,0,0,0,.31,2c.94,1.49.57,2.58-.95,3.35a20.63,20.63,0,0,0-3.83-6.88C586.86,539.44,591,541.32,591.17,540.28Z" transform="translate(1 1)"/><path class="cls-38" d="M710.53,566.35c1.56-1.84,3.4-1.09,5.21-.52C714.08,567,712.26,566.33,710.53,566.35Z" transform="translate(1 1)"/><path class="cls-38" d="M699.58,567.43c1.64-1.82,3.73-1.2,5.74-1C703.53,567.45,701.55,567.43,699.58,567.43Z" transform="translate(1 1)"/><path class="cls-4" d="M592.21,499.67a40.07,40.07,0,0,0,.74,11.46,52.67,52.67,0,0,1,.79,5.85c.06.68.37,1.75-.79,1.85-1,.09-1.21-.76-1.26-1.6,0-.67.15-1.4-.52-1.9a97.65,97.65,0,0,1-.45-17c.87-10.32.18-20.62.46-30.93h1Q592.21,483.51,592.21,499.67Z" transform="translate(1 1)"/><path class="cls-40" d="M708,361.5v-.4c.77-.34,1.2-1.3,2.27-1.22.61.63.22,1.45.22,2.17s.41,2.27-.87,2.34c-1.07.05-1.16-1.26-1.27-2.22A2.15,2.15,0,0,0,708,361.5Z" transform="translate(1 1)"/></svg>