<svg xmlns="http://www.w3.org/2000/svg" viewBox="0 0 1244 2208"><defs><style>.cls-1{fill:#010101;}.cls-2{fill:#1b1615;}.cls-3{fill:#fefefe;}.cls-4{fill:#453a34;}.cls-5{fill:#221612;}.cls-6{fill:#2a1711;}.cls-7{fill:#3c2119;}.cls-8{fill:#5d4d47;}.cls-9{fill:#110706;}.cls-10{fill:#190404;}.cls-11{fill:#161211;}.cls-12{fill:#332b29;}.cls-13{fill:#41352e;}.cls-14{fill:#2a1d17;}.cls-15{fill:#221c1a;}.cls-16{fill:#1d1b1c;}.cls-17{fill:#2e2622;}.cls-18{fill:#231c19;}.cls-19{fill:#1f1918;}.cls-20{fill:#201a18;}.cls-21{fill:#1d1716;}.cls-22{fill:#2d1c18;}.cls-23{fill:#735449;}.cls-24{fill:#37231e;}.cls-25{fill:#1e1815;}.cls-26{fill:#504d49;}.cls-27{fill:#3b2b27;}.cls-28{fill:#544741;}.cls-29{fill:#a6928f;}.cls-30{fill:#8c7270;}.cls-31{fill:#947c7b;}.cls-32{fill:#aba59d;}.cls-33{fill:#b8b4ad;}.cls-34{fill:#d0ccc2;}.cls-35{fill:#9d9390;}.cls-36{fill:#d4d2cc;}.cls-37{fill:#a69f9b;}.cls-38{fill:#0c0604;}.cls-39{fill:#392f2a;}.cls-40{fill:#c5aba3;}</style></defs><g id="Layer_2" data-name="Layer 2"><rect x="2" width="1242" height="2208"/></g><g id="Layer_1" data-name="Layer 1"><path class="cls-1" d="M898.53,2032.23q-448.77,0-897.53.08c-2.43,0-3-.79-3-4.34q.06-506.68,0-1013.38c0-3.54.54-4.34,3-4.34q618.53.13,1237.06,0c2.42,0,3,.79,3,4.34q-.09,506.7,0,1013.38c0,3.54-.54,4.34-3,4.34q-139-.15-278-.08c-1-1.9-.31-3.6.37-5.2a39.09,39.09,0,0,1,2.72-5.28,7.35,7.35,0,0,0,.36-8,9.77,9.77,0,0,1,0-8.83,13.16,13.16,0,0,0,1-7.58,11.25,11.25,0,0,1,.41-5.54,17.54,17.54,0,0,0,.87-8.21c-.36-3.39.92-6.11,2.3-8.51,1.47-2.59,2.16-5,.51-8-.47-.85-1-2.24-.65-3,2.45-5.92.08-13.83,3.81-19.19a4.83,4.83,0,0,0,.18-5.79,6.56,6.56,0,0,1-.79-5.28c.74-2.55.59-5.16.82-7.75.32-3.6,1.66-7,.72-10.82a2.39,2.39,0,0,1,.54-1.66c2.26-3.14,3.92-6.38,1.29-10.79-.24-.41,0-1.21,0-1.83.58-5-.54-7.1-4.08-7.36a78.81,78.81,0,0,0-9.72,0c-8.55.4-16.94-2-25.39-3.32-.53-.09-1.06-.28-1.6-.36-5.91-.89-6.47-.22-8.15,8.07-1.42,7.07-2.77,14.25-6.26,20-.14.22-.4.53-.37.74.83,5.27-2.12,9-2.59,13.63-1.47,14.63-5.67,28-8.78,41.82-1.3,5.83-2.75,11.6-3.77,17.57a36.71,36.71,0,0,1-1.29,5.82c-2.07,5.94-.89,13.34-4,18.84C899.38,2021.58,896.93,2026.88,898.53,2032.23Z" transform="translate(2)"/><path class="cls-2" d="M740.38,2039.23c-2.66-2.77-4-5.68-1-9,1-1,.25-2.18,0-3.14-1.09-3.88.06-7.08,2.72-9.87,1-1.07,1.89-2,1.22-3.68-1.39-3.56.41-6.43,1.77-9.68,2.35-5.6,3.62-11.65,5.54-17.44,1.81-5.48,4.44-10.81,5.83-16.26,2.61-10.22,8.32-19.59,8.52-30.43a9.26,9.26,0,0,1,2-5.17c1.57-2.3,4.42-4.54.94-7.57-.61-.52-.35-1,.25-1.48,7.75-6.5,9.08-16.08,11.75-25,1.2-3.94,2.84-5.31,6.84-5.23,9.9.2,19.61,2.12,29.4,3.15,9.61,1,19.17.32,28.74.69a11.25,11.25,0,0,1,7.26,2.59c2.52,2,3.46,3.27.76,5.68a2.08,2.08,0,0,0-.48,2.91,2.12,2.12,0,0,0,.85.69c4.32,2.45,2,4.81,0,7.17s-6,4-1.79,7.77c.81.73,0,1.89-.56,2.55-2.12,2.25-1.19,5.11-1.75,7.42-1.19,4.83-2.29,8.67,1.72,12.59.75.74-.88,2.13-1.67,3.1-2.58,3.23-6.15,6.13-3.1,11.07.8,1.28-.25,2.69-1.31,3.78-2.7,2.72-2.84,5.51-.06,8.24,2.36,2.35,1.62,4.24-.37,6.47-3,3.4-6.15,6.92-3.88,12.17a3.76,3.76,0,0,1-.46,3.13,9.45,9.45,0,0,0-1.47,9.75c.83,2.2-.51,4-1.74,5.59-2.37,3.15-2.84,6.12.18,9.26,2.61,2.73,1.43,5.23-.68,7.9-2.47,3.11-6.09,5.68-6.1,10.26H753.68a10.79,10.79,0,0,0-9.47,0Z" transform="translate(2)"/><path class="cls-1" d="M744.16,2039.23q4.74-4.44,9.47,0Z" transform="translate(2)"/><path class="cls-3" d="M971.17,1298.46c4.93,3,10,5.74,14.51,9.46,17.79,14.68,16.91,36.34-1.89,49.75-13.54,9.66-28.84,14.54-45,16.8-26.24,3.66-51.82,1.36-76.21-9.72a69,69,0,0,1-15.14-9.59c-12.72-10.46-19.72-27.88-3.9-45.34,3.17-5.94,9-8.79,14.57-11.46a130.25,130.25,0,0,1,51.73-12.78,136.58,136.58,0,0,1,53.15,8.52C965.89,1295.16,969.1,1295.76,971.17,1298.46Z" transform="translate(2)"/><path class="cls-4" d="M530.38,1695.61a4,4,0,0,1,.78.19,6.93,6.93,0,0,1,1.46,4.41c-.28,7.24,1.52,14.4.94,21.66.18,5-.31,10,.74,14.88a24.66,24.66,0,0,1-.13,6.13c-.2,1.08-.55,2.24-1.89,2.33s-1.9-.94-2.42-1.94a1.88,1.88,0,0,1-.32-.89c.35-8.63-5.47-16.52-3-25.42.42-1.51-.07-3.14-.27-4.74-1-7.42-2.11-8.12-8.94-5.38-4.5,1.82-7.69.08-9.22-4.95-1.46-4.73-.36-9.72-1.12-14.68a21.81,21.81,0,0,0-1.2,18.57,47.89,47.89,0,0,0,6.08,12.13c1.16,1.58,1.85,3.79.32,5.26-4.4,4.35-2.28,8.63-.34,13a26.91,26.91,0,0,0,1.26,2.52c3.08,5.45,1.9,7.87-4.53,8.6-2.91.34-3.84,2.27-4.89,4.45-1.83,3.79-3.29,4-6.31,1-.79-.77-1.39-1.74-2.21-2.47-1.77-1.55-3.26-4.28-5.29.2-1.34,3-5.82,2-7.48-1.37-.76-1.58-.79-3.37-1.24-5-.64-2.44-1.55-4.52-4.67-4.3a3,3,0,0,1-3.34-2.55s0-.08,0-.12a3.34,3.34,0,0,1,2.27-4.14h0c2.66-.81,4.73-3.22,7.93-2.61,1.89.38,2.73-.82,2.26-2.5-1.12-4,.46-7.77.64-11.64a91.49,91.49,0,0,0-1.58-21.15,70.87,70.87,0,0,1-.84-18.34c.5-6.73,1.57-13.43.87-20.22-.18-1.79.86-3.35,1.1-5a3.23,3.23,0,0,0-1.43-3.29,1.22,1.22,0,0,0-1.7.1,2.37,2.37,0,0,0,.06,3.36l.07.06c2.44,2.73,1.89,4.63-1.3,6.23-2.83,1.43-3.92,4.07-3.72,7.1.56,8.65-1.68,17.23-.19,25.93.66,3.84-.14,7.75-1.11,11.66a28.09,28.09,0,0,0,1.82,18c.67,1.6,1.78,3,1.73,4.84-.1,3.08-1.17,5.68-4.37,6.55s-4.59-1.59-5.6-4c-2.6-6.2-1.89-12.7-1.26-19.13.62-6,1.33-11.89,2.24-17.82a21.39,21.39,0,0,0-.95-11.18c-1.36-3.49-1.12-7-.69-10.68,1.67-14.55,4.09-29.34.82-43.73-3.52-15.44-3-31.23-6-46.68-1.31-6.75-2.06-13.57-4.49-20.06-1.89-11.65-6-22.71-9-34.07.1-1.42.12-3,1.84-3.41,1.51-.31,2.07,1.13,2.71,2.19,1.57,2.6,3.6,4.45,6.87,3.88,3.63-.63,5.56,1.24,6.94,4.24a93.8,93.8,0,0,1,4.81,14.2,26.76,26.76,0,0,0,2.25,6.18c.62,1.09,1.3,2.41,2.74,2.18,1.68-.25,1.9-1.89,2.21-3.25.38-1.76-.38-3.4-.63-5.09-.21-1.38-.52-2.84,1.13-3.7,2.74,1.5,3,4.36,3.45,6.9,1.6,9.09,4.9,17.86,4.73,27.31-.06,3,0,6-.86,8.85-.43,1.4-1.12,2.72-2.79,2.83s-1.89-1.36-2.57-2.39c-4.65-7.25-7.2-15.35-9.73-23.47-.34-1.11,0-3.48-2.12-2.84a3,3,0,0,0-1.53,3.91.31.31,0,0,0,.06.13c2.09,4.91,2.41,10.49,5.76,14.91,1.64,2.16,2.5,4.73,3.51,7.2.8,1.89,1.63,4,3.45,5,7.43,3.78,8.15,11.09,9.4,18,1.39,7.75,2.35,15.57.95,23.45a3.05,3.05,0,0,0,0,1.41c5,16.9,3.54,34.07,2.56,51.29a3.75,3.75,0,0,0,.64,2.62c1.07-1.32.72-2.7.57-4-.33-3.1.06-6,2.09-8.52a7.26,7.26,0,0,0,1.25-5.83,70,70,0,0,1,.59-23.23,14.71,14.71,0,0,0,.42-5.16c-2.9-18.13-.21-36,2.22-53.94,1.29-9.46,1.71-19.13,5-28.31,1.16-3.26.7-6.91.41-10.33-.5-6,2.16-10.89,4.38-16,1.54,2.42.75,5.12.77,7.68a65,65,0,0,0,.9,11.49c-.73,13-.49,26-1.31,39-.57,9,1.43,18,1.16,26.89-.3,10.56,1.23,21,.68,31.59-.19,3.57.68,6.19,4.16,8.16,6.62,3.79,7.47,10.84,7.87,17.32.52,8.63.79,17.29,1.37,25.45C529.08,1698.4,528.93,1696.73,530.38,1695.61Z" transform="translate(2)"/><path class="cls-5" d="M895.58,1795.07c-1,.21-2.19-.38-3.24.78,7.27,4.22,15.15,7.38,22.22,12.75-2.22,1-3.66.89-4.89.12-8.52-5.32-18.2-8.45-26.93-13.48-6.51-3.79-12.3-8.46-18.45-12.56-4.77-3.17-10.88-3.65-16.6-4.42a3.93,3.93,0,0,0-3.86,2.32c-.72,1.64.61,2.59,1.57,3.62,7,7.57,16.23,11.8,25.55,15.4,9.92,3.79,19.32,8.74,29,12.93.8.35,2,.64,1.72,1.89s-1.36.82-2.32.76c-7.38-.54-13-5.35-19.41-8.13-9.57-4.16-18.71-9.33-28.23-13.64-3.16-1.43-5.57-4.11-9-4.85-1-.19-1.78-1-2.66-.88-2.24,0-5.29-1.3-6.45,1.34s1.16,4.47,3.2,6.11c5.84,4.74,9.59,11.67,16.6,15.15,6.31,3.12,12.54,6.4,18.77,9.68,2,1.07,3.93,2.34,6.07,3.64-1.7,1.33-2.84.71-4,.18-8.6-4.15-17.74-7.39-25.24-13.43-3.61-2.89-6.46-6.69-10.49-9.25-5.5-3.5-11.75-3.48-17.73-3.86a47.15,47.15,0,0,1-14.65-3.08c-8.95-3.57-18-6.45-26.64-11.36-7.72-4.41-17.21-8.22-27.45-4.27-4.48,1.73-9.46-1.34-14-2.67-10.41-3-20.46-6.41-31.84-3.15-16.15,4.62-32.9,6-49.73,6.42-11.12.28-22.4.23-33.28,2.15a186.08,186.08,0,0,1-26.54,2.61c-4.85.15-9.19-2.41-13.94-2-9.26.88-18.35-1.45-27.44-1.42-6.47,0-12.55-2.33-19-1.53-5.07.64-9.31-3-14.55-3.09-16.95-.43-33.48-5-50.38-6-4.1-.22-8.41.6-12.64.65-2.36,0-3.37-.43-2.71-3.31,1-4.45-1.66-8.44-2.59-12.66-1.63-7.46-3.67-14.84-5.58-22.24-.74-2.88-1.31-5.81-2.84-8.43-3.69-6.15-2.13-8.74,5.23-9.32,1-.08,4,2.17,3.35-1.69,1.19-1.06,2.21-.43,3.22.32a3.25,3.25,0,0,1,1.09,2.5c-2.27,1.73-3.29,3.17-.44,5.67,3.25,2.9,3.89,7.34,4.94,11.43,1.4,9.52,2.4,19.07,3.85,28.58.71,4.73,2,5.88,6.84,5.77,3.91-.1,7.78-.53,11.74-.44,12.78.29,25.43,2.1,38.19,2.49,3.78.12,6.62-1.74,9.79-2.88,1.74-.62.64-3.34,2.17-4.47,2.23.22,2,2.09,2.3,3.53,1,4.28,2.84,6.12,7.1,5.84,17.74-1.2,35.54.87,53.23-.48,9.89-.76,19.87,1.77,29.56-1,8.51-2.34,17.11-4,25.76-5.54a7.21,7.21,0,0,1,1.52-.46,42.68,42.68,0,0,0,10.62-1.89,44.67,44.67,0,0,1,8.57-.37A21.2,21.2,0,0,0,684,1761a32.49,32.49,0,0,1,6.31-.4c4.27.53,8.33-.68,12.47-1.33a12.7,12.7,0,0,1,5.1-.1c1.67.42,3.14,1.51,5,1.4,6.8-.4,12,2.69,16.87,7.09,5.12,4.64,8.39,4.92,13.92.84,5.67-4.23,11.83-2.84,17.73-1.9q17,2.76,34.07,5.08c6.62.94,13,3.18,19.75,4.11,8.11,1.12,15.9.08,23.89-.37,10.06-.56,20.82-2.16,29.14,6.37a8.76,8.76,0,0,0,3.79,1.89c5.43,5.42,11.73,9.08,19.58,9.47a8.8,8.8,0,0,1,4.06.94c.3.2.41.39.3.59S895.64,1795.07,895.58,1795.07Z" transform="translate(2)"/><path class="cls-6" d="M532.25,1722.28c.1-8.84-1.58-17.62-1.09-26.49,21.41,7.24,43.53,11.29,65.75,15.14,15.28,2.67,30.63,1.44,46,1.89-.48,2.14,1,2.68,2.57,3.23a81.06,81.06,0,0,0,22.51,4.73,152.19,152.19,0,0,1,35.24,6c4.63,1.4,9.41.94,14.08.7,8.26-.49,15,2.61,21.18,7.62a24.53,24.53,0,0,0,6.84,4.14c9.9,3.73,19.14,8.82,28.6,13.5,9,4.46,18.19,8.51,28.39,9.46,1.72,1.1,5.08,1.13,4.42,3.91-.61,2.51-3.69,2.16-5.68,1.77-6.24-1.2-12.8-1-18.64-4-6.13-4.92-13.77-6-21-8-8.22-2.23-16.39-4.56-24.5-7.08-15.2-4.73-30.29-9.61-46.43-10.17a11.06,11.06,0,0,1-5.89-1.47c-10.71-7.12-22.91-8.74-35.25-8.75-8,0-16-1.89-24-.24a11.46,11.46,0,0,0-2.84.46c-8.89,4.28-18.48,2.9-27.82,3.37-6.92.35-13.88-.45-20.77.75a2.81,2.81,0,0,1-1.41,0c-11.17-3.72-23.38-3.85-33.9-9.67C536.38,1722,534.4,1722.28,532.25,1722.28Z" transform="translate(2)"/><path class="cls-7" d="M801.89,1763c-7.5,1.41-13.88-2.54-20.17-5.16-13.05-5.43-25.25-12.82-38.45-18.08-5.54-2.2-9.25-7.57-15.15-9.46-1.62-.52-3.09-1.62-4.92-1.4-13.25,1.61-25.77-2.42-38.43-5.2a37.05,37.05,0,0,0-9.26-1.09c-8.52.43-16.44-2.44-24.68-3.35-3.78-.42-7.35-2.55-11-3.9.1-2.07,2.49-1.16,3.06-2.51,13.25,1.19,26.5,3,39.75,3.38,12.59.35,24.88,3.91,37.47,3.12,21.87-1.37,43.89-1.15,65.44-6.23,7.35-1.73,14.69.62,21.89,1.9,9.59,1.66,19.29,2.28,28.92,3.18,6.18.57,10.24,3.64,14.32,7.2,5.06,4.41,9.74,9.25,14.59,13.91,1.38,2.22,1.74,4.52-.32,6.41-1.9,1.74-3.79.2-5.63-.56-3.07-1.26-5.68-3.27-8.61-4.8-7.23-7.66-16.88-8.76-26.55-9.67a63.55,63.55,0,0,0-12.18-.12c-6.3.61-12.53.15-18.8,0-7.74-.18-14.85,2.52-21.55,6-4.33,2.27-4.4,4.44-.64,7.51,7.9,6.43,17,10.74,26.61,13.82,2.66.84,5.6,1,7.49,3.52C805,1763.92,803.54,1763.7,801.89,1763Z" transform="translate(2)"/><path class="cls-8" d="M513.37,1531.9c-4.18,10.47-1.9,21.92-5.19,32.68-2.31,7.52-2.42,15.72-3.45,23.66-1,7.12-2.37,14.2-2.52,21.39-.2,9.29-2.29,18.65.26,28a16.92,16.92,0,0,1-.07,7.94,62.18,62.18,0,0,0-.68,23.27c.43,2.67.94,5.67-2.14,7.63-1.18.76-1.5,2.34-1.49,3.84a27.88,27.88,0,0,0,.57,4.64c.41,2.16,0,5.32-2.18,5.48-2.33.19-2.45-2.91-2.11-4.86,1.09-6.4.43-12.88,1-19.27.69-7.84-2.29-15.6-.2-23.41a1.74,1.74,0,0,0-.22-1.37c-4.33-5.36-2.73-11.55-2.54-17.57.26-9-2.27-17.52-3.88-26.2-.35-1.9-2-2.75-3.49-3.6-3.72-2.08-5.68-5.37-7.57-9.16-3.49-6.81-6.21-13.89-9.16-20.9-.8-1.89,2.45-7.88,4.36-7.86,1.17,0,1.56,1,1.7,1.89.94,6.38,3.69,12.2,5.49,18.3,1.13,3.88,4.94,6.16,5.32,10.41.12,1.29,1.64.73,2-.17a9.34,9.34,0,0,0,.69-3.66c-.1-7.86,1.1-15.82-2.27-23.44-1.11-2.5-1.26-5.46-1.63-8.23a20.7,20.7,0,0,0-2.91-8.81c-3.64-3.94-4.39-8.9-4.42-13.9,0-2.69,2.53-3.64,5.21-1.78,3.2,2.22,4.69.44,4.9-2.12.44-5.12,3.79-8.38,6.34-12.31,3-4.53,5.57-9.38,8.51-14a18,18,0,0,1,6-5.88c1.63-1,3.48-1.3,3,1.78-2.58,7.57,1,14.82,1.35,22.24C512.12,1521.66,513.42,1526.71,513.37,1531.9Z" transform="translate(2)"/><path class="cls-9" d="M804.65,1761.08c-13.09-3.07-25.18-8.29-35.57-17-3.78-3.15-4-5,.17-7.57,7.89-4.88,16.39-7.57,26-7.14,5.17.27,10.49,1.21,15.77-.27,3.73-1,8-.53,11.45.1,9.16,1.69,19.88-.4,26.67,8.64a7.63,7.63,0,0,0,1.89,1.36c4.74,5,11.36,7.19,16.59,11.56,2.77,2.34,5.67,4.47,7.3,7.86.95,1.9,2.93,2.27,4.48,3.28,2.3,2.08,2.17,3.71-.7,5.2a46.39,46.39,0,0,0-4.91,3.43c-5.08-2.84-10-6.08-15.59-9.69.28,3.63,2.2,5.15,3.54,7,1.2,1.64,1.89,3.31.68,5.2a4.82,4.82,0,0,1-4.9,2.15c-5.61-.64-9.86-3.38-12.08-8.59-1.76-4.16-4.11-6.62-9.06-6.48-5.29.17-9.34-1.79-10.61-7.77-.62-2.92-3-5.14-5.14-7.22-.95-.87-2-1.89-3.22-.63-.95.94-.34,2.31.45,3,5.32,4.54,7.44,11.64,12.89,16.08a12.25,12.25,0,0,1,2.58,2.75c.78,1.2,1.63,2.53.77,3.93s-2.24.68-3.45.8c-9.22,1-16.61-3.78-24.28-7.71C805.54,1762.83,805.3,1761.78,804.65,1761.08Z" transform="translate(2)"/><path class="cls-10" d="M1104.63,1454.3c-2.33-8.13-4.09-16.25-3.92-24.87.14-7.2-2.84-14.07-4.1-21.14-1.07-5.85-2.63-11.59-3.85-17.41-.94-4.4,1.49-7.4,5.06-9.05,4.55-2.1,6.23-5.29,5.92-10.1-.33-5.2-.1-10.37,2.54-15.15,1.57-2.83,2.57-2.7,5.23-.49,4.92,4.13,7.14,9.89,10.08,15.06,1.74,3.06,2.69,6.25,5.62,8.74a6.48,6.48,0,0,1,1.66,7c-1.51,3.62.25,6.2,2.53,8.38,3.16,3,3.67,6,1.76,10a25.94,25.94,0,0,0-2,11.93c0,1.62.36,3.42,2,3.92,4,1.17,3.62,4.73,4.45,7.57.33,1.14.4,2.79-1.1,3.24s-2.21-.59-2.69-2c-.39-1.09-.6-2.83-2.26-2.47-1.46.32-1.11,2-1.49,3.15-1.81,5.48-3.25,10.77-2.12,16.83.71,3.79-2.53,3.93-5.39,2.16-.25-.76.12-1.13.81-1.29-.33-.2-.57.09-.83.19-4.8,1.89-9.54,3.79-14.48,5.29C1107,1454.21,1105.91,1455.16,1104.63,1454.3Z" transform="translate(2)"/><path class="cls-11" d="M451.74,1943.63c.45-2.1,5-2.11,3.2-4.82-1.34-2-4.28-.55-6.63-.22-9.46,1.37-18.38-1.41-26.93-5-5.5-2.33-11.56-3.12-16.47-7.35-2.69-2.32-7.23-.51-10.91,0-2.4.3-6.12,1.76-6.62-1s3.61-3.26,5.87-3.21c5,.11,8.89-2.93,13.25-4.43a38.08,38.08,0,0,1,22.16-1.23,29.65,29.65,0,0,0,20.22-1.89c12.31-6.1,25.33-9,38.61-11.44,1.37-.25,3.1,0,2.92-2.11s-2-1.71-3.28-1.7c-3.29,0-4.2-.94-3.55-4.61.87-4.94-4.17-5.57-7.22-7.1-4-2-8.51-1.64-13-1.59-1.27,0-3.33.51-3.24-1.55.07-1.55,1.9-1.19,3.16-1.24,7.81-.38,15.48-2.65,23.38-1.9,1.46.15,3.7-.94,4.19,1s-2,2-3.17,2.84c-.77.52-1.61,1-3.91,2.28,5.76.36,6.53,6.3,11.51,6.26-.95,3.21-3.43,1.77-5.23,2a10.91,10.91,0,0,1,6.24,4.25c1,1.52,2.34,2.84,4.2,2.68,5.24-.55,10.74.26,15.57-2.73,2.45-1.52,5.27-2.06,8-2.84,1.8-.5,3.58-.2,4.47,1.63s-.31,3.22-1.58,4.06c-4.82,3.21-9.54,6.63-14.73,9.19-2,1-4.1,1.9-5.17,3.92-5.47,10.08-14.19,14.2-25.28,14-10.71-.14-21.46,1.07-32.08-.84a121.41,121.41,0,0,1-19.67-5c-3.24-2-6.87-3.12-10.23-4.86a6.54,6.54,0,0,0-7.95,1c6.89,4,11.91,10.41,19.35,13,4.73,1.66,9.93,1.25,14.93,1.75a52.27,52.27,0,0,0,7.08.06c3.63-.13,6.08,1.4,7.12,4.9.87,2.94,2.59,4.47,5.81,4.4,1.48,0,3.54.11,3.55,2.19a3.21,3.21,0,0,1-3.24,3c-9.68.86-18,5.68-26.49,9.46-3.42,1.52-7.32,1.52-10.77,3.4,5.33,3.78,16.29,4.08,21.17.84,3-2,6-4.16,9.91-2.35-5.68,5.74-12.63,9.7-19.45,13.83-1.62,1-3.28,1.27-4.66-1.14a10.84,10.84,0,0,0-7.46-5.36,3.62,3.62,0,0,1-1.7-.8c-4-3.78-8.52-6-14.47-2.84l-.06-1.89,14.67-7.57c4.4,1.48,8.07-.74,11.43-2.84C443,1949.41,447.5,1946.74,451.74,1943.63Z" transform="translate(2)"/><path class="cls-12" d="M430,1922.84c16.44,5.68,33.44,6.39,50.59,5.63a80.15,80.15,0,0,0,11.67-1.1c5.84-1.15,9.15-5.88,12.3-10.31,2.21-3.14,3.89-6.42,8.3-6.62a1.85,1.85,0,0,0,1.28-.49c2.83-4,7.82-4.94,11.51-7.72,1.09-.81,3.23-1.69,2.06-3.59-.95-1.56-2.63-1.05-4.22-.34-7,3.13-14.19,5.67-22.12,5.67-2.92,0-5-.5-6.25-3.68-1.39-3.56-5.56-3.39-9.4-4.85,3.62-1.94,7.05.23,9.62-1.89,3.57-.42,7.22-.52,10.69-1.35,3.93-.94,7.36-2.52,9.65-6.68,2.59-4.73,7.08-8.61,12.89-7.66,3.67.59,6.53,4.41,10.66,4.93a2.52,2.52,0,0,1,0,1.28c-1.84,5.87,1.37,9.65,5.46,12.92,3.79,3,3.63,7.41,2.15,10.74-1.59,3.59-1.57,9.66-8.25,9.11-.72-.06-1.54.9-2.3,1.41L518,1930.48c-2,1.12-2.84-.6-3.79-1.73-1.8-2.15-3.79-2.21-5.73-.5-3.25,2.84-7.11,3.94-11.24,4.44a5.18,5.18,0,0,0-2.71.73c-7.46,6.06-16.24,4.1-24.53,3.62-10.16-.59-20.27-2-30.42-2.84-7.78-.64-14.19-4.84-20.55-8.89-1.5-.94-2.55-2.6-1.47-4.46s2.71-1.72,4.52-.95A72.84,72.84,0,0,0,430,1922.84Z" transform="translate(2)"/><path class="cls-13" d="M859.62,1864.63c-21.07,1.1-41.81-1.4-62.61-2.36-1.53-.08-3.19-.21-2.27-2.35,3.38-7.94,4.86-16.53,8.51-24.4.85-1.81,1.61-2.83,3.71-2.67a18.13,18.13,0,0,0,7-.75c15.28-4.8,28.07,1.45,40.8,8.79a37.33,37.33,0,0,1,9.14,7.31c1.69,1.89-.95,3.67-2,4.89-1.46,1.65-4.16,2.34-.65,4.62,1.28.83-.11,1.71-.72,2.08C858.29,1861.14,858.14,1862.81,859.62,1864.63Z" transform="translate(2)"/><path class="cls-14" d="M804.65,1761.08c9.18,4.37,17.75,10.8,29,8.24-.5-3.79-4.49-5.3-6.74-8.14-1.76-2.22-4-4.18-4.73-6.94-.94-3.52-5.37-3.78-6.17-7.3-.33-1.51-1.62-3.06.17-4.21s3.32-.94,5,.86c3.2,3.53,6.21,7.1,7.2,11.91a3,3,0,0,0,3.26,2.69,25.35,25.35,0,0,0,3.24.39c6.91-.68,10.26,3,12.59,9.06,1.74,4.5,6.33,5.78,10.79,6.54a3.54,3.54,0,0,0,3.58-1.82c1-1.49.21-2.6-.78-3.79a40.64,40.64,0,0,1-3.72-4.84c-.58-.94-2-2.83-.74-3s3.1-2.14,4.67-.37a22,22,0,0,0,10.33,6.81,3.48,3.48,0,0,1,2.27,3.41c.61,4.59-2,8.69-1.89,13.2-1.89,1.83-3.62,1-4.79-.63-3.43-4.91-8.23-5.68-13.84-6.17-7.67-.69-15,.19-22.6.88a69.32,69.32,0,0,1-30.77-4c-4.89-1.83-10.18-1.72-15.27-2.21-7.35-.69-14.45-2.66-21.77-3.47-4.89-.53-9.78-2.21-14.82-.59a9.09,9.09,0,0,0-3.24,1.74c-5.56,4.6-10.94,4.54-16.15-.64-4.46-4.44-9.35-7.32-15.86-6.72a5.21,5.21,0,0,1-4.61-1.84c1.52-2,3.79-2,6-2.39,13.1-2.24,26.06,0,39.05,1.31,6.27.6,12.55,1.12,18.83,1.4,3.86.18,7.51.64,10.92,2.51a57.49,57.49,0,0,0,23.25,2.84l-4.34-2.84C803.16,1762.92,804.57,1763,804.65,1761.08Z" transform="translate(2)"/><path class="cls-15" d="M444.17,1710.81c-3.43-.3-6.86-.5-10.27-.94-4.31-.53-8.75-.68-10.59-6-1.42-4.09-6.62-6.5-5.48-12.25a8.37,8.37,0,0,0,5.75.73c1.07-.26,2.68.75,3-.94.33-1.52-1.5-2.34-2.38-2.47-3.79-.55-6-3.92-9.57-4.74-1.4-.33-3.78-1.64-.86-3.46,2.12-1.31,5.68-2.4,5.14-4.8-.72-3.25-3.9-5.59-7.1-7.05-2.27-1-4.66-1.69-5.25-4.63,2.1-1.12,3.49.35,4.88,1.12,2.52,1.4,5.18,1.11,7.83,1.08,2.36,0,3.78-1.66,4.65-3.5s-.28-3.29-1.61-4.53c-2.16-2-4-3.78.94-4.46,2.79-.39,3.56-2.39,2.14-4.9a18.29,18.29,0,0,1-2.27-8.52c-.22-5.74-5.17-8.76-8.14-12.87-2.36-3.29-4.11-7.08-7.46-9.64-.88-.68-1.67-1.75-.94-2.83s2-.57,2.94,0c3.51,2.32,7.33,4.26,9.92,7.75.61,1.89,3.36,2.47,2.84,5-1.36.89-1.37,1.85-.34,3.09,1.61,2,3,4,4.57,6,1.36,1.79,2.53,3.62,2.41,6a2.3,2.3,0,0,0,.17,1.39c6.08,8.26,4.79,19.31,10.54,27.73a17.46,17.46,0,0,1,2.52,8.06,8.41,8.41,0,0,0,3.15,6c3.9,3.26,3.32,6.94-1.1,9.36-1.69.94-3.62,1-6,2C444.61,1700.36,444.79,1705.43,444.17,1710.81Z" transform="translate(2)"/><path class="cls-16" d="M971.17,1298.46c-12.52-5-25.35-9.28-38.8-10.75-26.61-2.93-52.25.6-76.29,13.09-4.63,2.4-8.52,5.85-12.58,9-.24-4,3-5.76,5.59-7.57,5.3-3.66,10.7-7.45,17-9,8.93-2.19,15.36-8.52,22.33-13.58,7.43-5.39,15.48-7.58,23.92-8.57,15.27-1.89,29.81.75,42.51,10.14,4.53,3.35,8.83,7,13.14,10.66C970,1293.59,971.43,1295.66,971.17,1298.46Z" transform="translate(2)"/><path class="cls-8" d="M530.38,1695.61v10H529c-2.23-6.15-1.89-12.76-2.32-19.12-.49-7.32,0-14.75-2.13-21.89a10.73,10.73,0,0,0-7-7.57c-2.57-.79-3.32-2.24-3.36-4.82-.09-7.53-.56-15.1-.56-22.56,0-11.43-.88-22.77-1.33-34.15-.39-10.08,1.89-20.09.85-30.1a32.73,32.73,0,0,1,2-14.31,386.69,386.69,0,0,1,8.7,49.08c2.21,18.39,3.74,36.86,5.3,55.31.39,4.54.26,9.12.37,13.7,1.08,5.35-.36,10.83.77,16.19C529.21,1688.78,531,1692.17,530.38,1695.61Z" transform="translate(2)"/><path class="cls-17" d="M510.54,1494.28c-.3-1.15-1-2.57-2.08-1.22-1.95,2.27-4.23,4.25-6.12,6.62-4.23,5.27-5.68,12.24-10.81,16.71-2,1.75-3.32,3.7-2.93,6.52.23,1.65-.73,3-1.37,4.43-1.39,3.05-3.16,3.87-5.56,1-.78-1-1.36-2.34-2.94-1.53s-1.11,2.17-1,3.65c.45,4.22,2.28,8,3.28,12.07-.7,3.43,2.76,6.46.95,10-.77,1.5-.95,3.62-3,3.91-2.32.34-3.15-1.68-4-3.35-3-5.76-3.49-12.35-6.1-18.27-1.68-3.78-2.36-7.67-8.45-5.9-2.91.85-5.62-2.15-6.77-5.41-.24-.69-.39-1.81-1.41-1.16-.46.28-.39,1.4-.56,2.15-3.12-.48-2.09-3.45-3-5.21-2.09-4-3-8.52-4.91-12.67a2.28,2.28,0,0,1,.52-3c1.25-.87,2,.09,2.66,1,2.9,7.15,2.9,7.19,10.32,6.78,1.9-.11,2.84,1.17,3.86,2.3s2,2.84,3.25,4c3.29,3,5,2.67,6.48-1.55,1.24-3.51,2.64-5.89,6.92-6.38,2.84-.33,5-3.13,7.43-4.81,9.81-6.68,18-15.22,26.74-23.1,2.22-2,1.71-4.83,3.16-7.57,2.52,3.44,3.19,7.06,5.21,10,1,1.47-1.29,2.64-2.44,3.53C515.34,1489.88,512.23,1491.24,510.54,1494.28Z" transform="translate(2)"/><path class="cls-18" d="M879.43,1762c-2.14.18-4.19-.08-5.27-2.2-3.31-6.5-9.28-9.89-15.28-13.25a25.33,25.33,0,0,1-7.78-7.26c2.95,1.54,5.94,3,8.86,4.65,4.62,2.56,5.17,2.29,5.32-2.83v-1.9c2.84,1.68,5.3,2.75,4.79-2.42-.2-2,.76-3.11,3.11-3.07,11.57.25,23.07,1.8,34.59,2.23,10.06.38,19.87,2.65,30,2.44,5.41-.1,10.82.45,15.81,3.45,2.59,1.56,3.79,3.08,3.5,5.9-1.36,2.94-4,3.32-6.76,3.26-7.39-.17-14.77-.69-22.17-1.13-16.95-1-33.94-1.32-50.93-1.14-3.78,0-4.89,2-2.84,5.14,1.15,1.7,1.69,3.79,3.16,5.23Z" transform="translate(2)"/><path class="cls-19" d="M430,1922.84c-3.06.77-5.37-1.3-8-2.17-1.4-.48-2.84-1.12-3.74.53s.22,2.89,1.49,3.5c7.89,3.68,15.08,8.75,24.55,8.74,8.52,0,17,1.9,25.66,2.44,6.12.41,12.3.09,18.45,0a1.66,1.66,0,0,0,1.26-.54c2.84-4.58,7.88-3.88,12.14-4.92a11.48,11.48,0,0,0,5-2.52c4.73-4.19,5.4-4.08,9.3,1.35a2.63,2.63,0,0,0,1.94,1.18c-3.27,3.06-7.4,4.51-11.71,6.69,1.89-4.41-.44-4.27-3-3.56-11.29,3.14-21.7,7.68-29.63,16.89-3.68,4.27-8.71,7.12-13.41,10.25a16.67,16.67,0,0,0-10.6,4.4,7.49,7.49,0,0,1-8.3,1.71c-4-1.56-8.41-.85-12.45-2.22-.94-.32-2-.5-2.24-1.5-.41-1.47,1.15-1.65,1.89-2.37,1.66-1.64,3.92-.74,5.86-1.3a89,89,0,0,0,14.7-6.28,48.1,48.1,0,0,1,15.61-4.73c1.79-.21,3.48-.25,4.32-2.16-.09-.14-.13-.35-.24-.38-5-1.58-6.88-3-10.61-8.19-1.1-1.55-2.55-1.73-4.14-1.6-6.78.59-13.47-.71-20.19-1.06-5.41-.28-9.46-4-13.43-7.22-2.83-2.29-5.29-4.9-8.91-5.92-.95-.27-1.89-.64-2-1.71-.14-1.4,1.07-1.62,2.07-2.14,3.51-1.82,6.78-1.78,10.08.54C424.21,1920.4,427.73,1920.37,430,1922.84Z" transform="translate(2)"/><path class="cls-20" d="M444.11,1613.45c2.3-.35,1.9-2.13,1.9-3.65,0-4.73.15-9.34-1.43-14-.95-2.69-1.74-6.12,1.41-8.66a3.43,3.43,0,0,0,.38-4.74c-1.62-2.14-1.2-4.47-1.36-6.78a24.25,24.25,0,0,1,7.57,16.85c.37,7.81-.26,15.63-1.24,19.53,1.56-14.2,2.79-32.31,3.63-50.93,3.78,3,3.78,7,3.71,22.58,0,13.38-.17,26.76.06,40.12.13,6.62-.86,13.15-.94,19.74-.15,8.81.62,17.56,1,26.35a68.85,68.85,0,0,0,1.26,18.23,26.16,26.16,0,0,1,.31,9.82c-.47,2.51-1.28,4.95-4.61,4.9-2.57-1.55-2.55-4.18-2.57-6.63-.16-16.33-2.62-32.39-5.58-48.39a42.84,42.84,0,0,0-4.81-13.62,60.33,60.33,0,0,1-2.9-7.42c-.63-2.32-.66-4.73,2.25-5.18s4.88,1,4.78,4.28v1.89c.63-2.6-.17-5.1-1.69-7.63C444.17,1618.18,442.7,1616,444.11,1613.45Z" transform="translate(2)"/><path class="cls-4" d="M443.22,1633.33c4.74,5.14,5.41,11.82,6.52,18.19,2.69,15.44,5.14,30.93,4.92,46.69a18.94,18.94,0,0,0,.95,4.12c3.36,3.92,3.79,8.82.95,11.4l-2.9-.85c-3.06-1-6.43-.52-9.37-2.06-.48-.89-2.07-1.15-1.52-2.63,1.77-4.73-.58-7.44-4.6-9.35-.95-.44-2.31-.81-1.89-2.25.34-1.14,1.58-.84,2.45-.79a10.17,10.17,0,0,0,5.41-1.39c3.92-2.12,4.21-4.89.49-7.41-2.3-1.55-3.12-3.3-3.37-6.12-.56-6.62-4.63-12.19-6.95-18.3-1-2.75-2.95-5.2-1.65-8.44a3.14,3.14,0,0,0-.28-2.69c-5.35-6.11-5.17-15.38-11.92-20.68-.79-.62-2-1.41-1.33-2.71.84-1.76,2.2-.21,3.32-.35,4.73,4.38,9.46,8.7,13.88,13.4,3.89,4.14,4.28,10,6.63,14.92,2,4.2,4.19,8.33,5.87,12.77a57.28,57.28,0,0,0-2.13-17.13c-1.26-4.88-2.07-9.86-3.79-14.61a4,4,0,0,1,0-3.22Z" transform="translate(2)"/><path class="cls-20" d="M447,1504.62c-1.84-.85-3.09-1.28-2.12,1.7,1.1,3.38,2.93,6.44,3.93,9.92a40.37,40.37,0,0,0,2.92,8.26c2.95,8,4.2,16.47,7.34,24.41,1.18,3,1.18,6.37,1.18,9.65,3.5,9.69,4.38,19.88,5.57,30,.95,8.09,1.26,16.27,2.25,24.35a84.47,84.47,0,0,1,.07,16c-.38,6-.1,11.94-.82,17.87-.27,2.19-.57,4.73-3.35,5-3.07.34-3.79-2.33-4.57-4.52-.67-1.9-.62-4-1.26-6,.31-16,.16-31.91.19-47.86v-8.92c.94-17.24-3.19-33.7-7.69-50.1-3.65-13.36-8-26.5-12.84-39.46-.49-1.32-.78-2.74-1.59-3.18,2.66,4.9,4.24,10.78,6.27,16.49.28.75.36,1.75-.55,2-1.29.36-2-.62-2.44-1.69-2.29-6.23-5.84-11.8-9-17.59-1.12-2.08-2.13-4.22-3.44-6.18h0c-.55-1.21-1.67-2.29-.95-3.79,2.05-1.75-.08-3.47-.13-5.19s-1.34-3.48-.44-5.53C434.39,1480.8,443.31,1491.08,447,1504.62Z" transform="translate(2)"/><path class="cls-21" d="M412.94,1576.55c-2.73-1.18-2.79-4.09-3.79-6.26-5.21-11.16-11.79-21.77-13.71-34.28-.34-2.18-1.42-4.62,1.53-5.57s3.67,1.58,4.51,3.64c1,2.47,2.07,4.92,3,7.41s2,4.73,5.45,3.13c2.09-.94,3.55.7,4.83,2.12a57.31,57.31,0,0,1,13.25,26.1c-2.33,2.64-.81,5.47.16,7.81,2.56,6.18,3.54,13.09,8.39,18.27,2.31,2.47,2.17,6.11,3.63,9.07,1.14,2.31-.94,3-2.84,2.84-2.16-.25-3.68-1.77-4.83-3.5-6.58-9.78-13.12-19.59-17.67-30.52-1.89-4.5-3.61-9.07-5.38-13.6a75.48,75.48,0,0,0-6.52-12.87c2.84,6.48,5.68,13.62,9.24,20.47C413.06,1572.5,414.29,1574.38,412.94,1576.55Z" transform="translate(2)"/><path class="cls-17" d="M427.14,1484.75c5,5.68,7.95,12.59,11.35,19.24.95,1.89,1.44,4.11,3.79,5.42q-3.36-9.47-6.71-18.87l1.4-.38c11.35,30,23.06,60,22.41,93a1.25,1.25,0,0,1-1.77,0l0,0c-.19-6.88.56-13.81-1.62-20.59-.26,9.46.22,19.09-1.36,28.47s-.54,19.32-4.87,28.33c2.69-15.09,4.74-30-4.54-43.8-4.53-7-6.37-15.09-9.46-22.71-6.81-10.13-15.28-19-22.39-28.91-1.33-1.89-4.08-3.94-2-6,2.44-2.42,4.46.62,6.17,2.24,2.06,1.89,4.4,3.53,6.21,5.68,1.51-.46.79-4,3.51-2.36,3.48,11.72,9.29,22.53,13.36,34.07,2.65,7.47,4.23,15.41,9.38,21.76,3.47,3.59,2.41-1.52,3.79-2,0-5.05-.08-10.09,0-15.15.19-10.66-3.3-20.38-6.63-30.35-2.37-7.08-5.3-13.94-7.64-21-2.5-7.51-6.63-14.2-10.31-21C428.08,1488.3,427,1486.78,427.14,1484.75Z" transform="translate(2)"/><path class="cls-20" d="M427.08,1523.55c-1.39.11-2,.82-1.6,2.2.32,1,1,2.3-.5,2.76-1.27.38-1.69-1.08-2.43-1.82-2.67-2.62-5.4-5.19-8.11-7.78-.71-.68-1.64-1.35-2.51-.77-1.35.94-.32,2.22.28,2.84,5.23,5.2,8.52,11.85,13.48,17.37,3.78,4.27,8.12,8.7,9.92,14.56-4.08-2.38-5.84-6.78-8.58-10.26-5-6.39-11.36-11.61-15.62-18.54A16.16,16.16,0,0,0,405,1518c-4.07-2.07-6-5.87-8-9.58-.59-1.11-1.65-2.74-.52-4,3.46-3.84,1.62-7.94.8-12-.24-1.24-.94-2.59.26-3.46a3.19,3.19,0,0,1,4,.18c7.3,6.08,15.5,11.2,20,20.16C423.84,1514,425.16,1518.87,427.08,1523.55Z" transform="translate(2)"/><path class="cls-22" d="M649.41,1393.77c-.41,3.69-3.55,5.77-5.19,8.75-3.16,5.74-2.61,7.42,3.36,10.41,1.56.79,4.5,0,4.56,2.46.09,3.38,1.71,6.68.29,10.16-1.1,2.69-2.33,3.61-5.33,2.3-3.51-1.51-6.58-4.43-10.91-3.73-1.27.19-2-.95-2.31-2-1.5-5.39-2.56-10.79,1.89-15.45,6-6.25,8-14.6,11.82-22s4-15.25,3.78-23.26c-.06-2.51.06-5.4,2.42-6.75,2.58-1.47,5.14-.45,7.08,1.9a2.64,2.64,0,0,0,1.52.72c3-3.78,6.74.25,9.92-1.09.62,3.44-1,5.2-4.31,4.93-2.89-.23-5.91.69-8.72-1.23-1.84-1.25-2.65.24-2.31,2,.94,4.94-.68,9.72-.7,14.59,0,3.62-2,6.58-3.79,9.55A23,23,0,0,0,649.41,1393.77Z" transform="translate(2)"/><path class="cls-4" d="M412.94,1576.55c-2.23-7.89-7.17-14.6-9.62-22.38a17.87,17.87,0,0,1-1.19-3c-.21-1.69-2.69-4.07-.34-4.87s1.27,2.51,2.12,3.79c8.47,13.08,11.75,28.59,19.62,42,3.1,5.25,7.8,9.39,10.23,15.14.48,1.14,2.07,1.84,3.21,2.66a1.83,1.83,0,0,0,2.2-.11c1-.65.41-1.39.1-2a147.52,147.52,0,0,0-6.87-13.13,58.56,58.56,0,0,1-7-20.53c-.41-2.49,1.2-2,2.64-1.23a304.75,304.75,0,0,0,16.08,40.69c.74,2.06,1,4.43,2.28,6.09,3,4,1.77,7.76-.34,11.7,0-1.89,0-3.78,0-5.67.11-2.95-2.16-3.52-4-3.23-2.05.32-1.42,2.18-1,3.78.61,2.42,2.45,4.43,2.21,7.09h0c-1.44.51-1.9-.51-2.38-1.5-1.75-3.6-3.78-7.07-5.17-10.83-4-9.85-9.19-19.07-14.44-28.29C418.25,1587.42,415.7,1581.91,412.94,1576.55Z" transform="translate(2)"/><path class="cls-23" d="M649.41,1393.77c-1-4.74,2.54-8,4-11.88,2.47-6.44,2.63-13.05,2.28-19.74-.09-1.49-1.27-3,.74-4.1,1.68-1,2.84-.43,4.06,1,2.57,3,6.29-1.19,9.17,1.24.16.13,2.2-2.32,2.65-4a5.51,5.51,0,0,0,.7-.31c1.08-.28,2.16-.57,2.09,1.18.06,11.2,1.34,22.39,0,33.61-.42,3.55-.34,7.17-1.14,10.68-3-.51-4.51-4-8.07-3.59-1.2.13-1.22-1.89-.75-3.13a5.9,5.9,0,0,1,4.32-3.79c1.78.19,1.54,2.1,2.78,3.19.88-1.22.6-2.54.6-3.9-1.24-1.11-2.49,1.11-3.71,0-1-2.15.94-3.41,1.52-5.08,1.13-3.08,2.5-6.26-.24-9.15-4.9-5.17-7.44-4.73-10.47,1.65-.73,1.53-1.14,3.3-3,3.92A69.73,69.73,0,0,0,649.41,1393.77Z" transform="translate(2)"/><path class="cls-24" d="M669.48,1391c-.48,1.24-1.7,1.74-2.58,2.58s-1.49,1.79-1.08,2.9c.7,1.94,1.65.06,2.49.09,3.09.1,3.73,3.26,5.68,4.81-.34,2.84-2.17,4.67-4.73,7.1.31-3.11-.58-4.6-2.9-6.09-4.05-2.6-5.78-7.1-6.14-11.95-.05-.75.1-1.66,1.25-1.46,3.64.6,4.47-2,3.84-4.36-.68-2.51-2.55-4.79-6-3.25a6.66,6.66,0,0,1-2.31.13c1.45-3.09,2.94-6.18,4.35-9.29.82-1.81,1.89-2.17,3.72-1.25,8.52,4.38,11.22,6.72,5,17.16a7.61,7.61,0,0,0-.54,2.16c.19.17.26.33.18.49S669.55,1391,669.48,1391Z" transform="translate(2)"/><path class="cls-25" d="M435.65,1621c3.31,3.62,3.61,9.09,7.57,12.3,1.39,5.61,2.58,11.27,4.21,16.81,1.75,5.86,2.15,11.93,3.27,17.88.22,1.18.46,2.84-.95,3.32-1.75.53-2.45-1.24-2.84-2.47-2.53-8.18-7.42-15.45-9.27-23.86-.64-3-2.84-4.3-4.84-6-3.84-3.39-8.13-6.39-10.41-11.22-.55-1.83-2.92-2.59-2.83-4.81,5.18,5.37,11.15,10,15.71,16,1.23,1.62,2.58,4.43,5,3.46,2.15-.86,1-3.65,1-5.57,0-3.2-1.74-6-3.06-8.8C437.15,1625.7,435.4,1623.69,435.65,1621Z" transform="translate(2)"/><path class="cls-9" d="M877.54,1759.19c-4.25-1.47-4.73-5-4.63-8.72,0-2.27,1.81-2.7,3.71-2.63,12.85.41,25.76.38,38.58.28,9-.07,17.88,2,26.92,1,2.77-.29,5.86.49,8.82.65a8.64,8.64,0,0,0,6.1-1.9c-.41,4.73-1.73,5.78-6.08,5.08-6.62-1.06-13.44-.65-20.14-1-17-1-34.07-2.75-51.16-2.13a16.4,16.4,0,0,0-4.19.33c-1.45.43-2,2.56-.63,2.67C880.52,1753.13,877.89,1756.52,877.54,1759.19Z" transform="translate(2)"/><path class="cls-26" d="M626,1323.56c2-8.23,1.37-16.19,1.64-24.11,0-1.23-.15-2.61,1.65-2.84s2.17,1,2.64,2.17C634.39,1304.48,631,1319.14,626,1323.56Z" transform="translate(2)"/><path class="cls-19" d="M451.74,1943.63c1.34,1.09.64,2.23-.43,2.51-6.53,1.73-10.63,7.78-17,9.47-2.35.62-5,2.93-7-.64,6.83-3.5,13.7-7,20.49-10.57A9.17,9.17,0,0,1,451.74,1943.63Z" transform="translate(2)"/><path class="cls-27" d="M675.14,1357.07a2.29,2.29,0,0,0-2.09-1.18,12.34,12.34,0,0,0,4-8.11,17.77,17.77,0,0,1,3.64-9.08c.89-1.23,2.26-2,3.72-1.22,1.75.88.9,2.35.45,3.69C682.83,1347.22,678.41,1351.79,675.14,1357.07Z" transform="translate(2)"/><path class="cls-28" d="M694,1333.16c-5.57-4.73-5-8.26,0-10.55,2-.9,2.93-.48,2.84,1.89C696.77,1327.56,695.1,1330,694,1333.16Z" transform="translate(2)"/><path class="cls-29" d="M1131.8,1456.41c3.33-3.56,7.65-4.05,11.49-5.68.79-.33,2.3-.31,2.36.73a3.48,3.48,0,0,1-2.83,3.78C1139.18,1455.88,1135.48,1456.06,1131.8,1456.41Z" transform="translate(2)"/><path class="cls-30" d="M1104.63,1454.3l22.82-7.94c-.82,3.72-3.73,1.71-4.83,3.33l-20.54,6.9c-.49.11-.64-.07-.47-.54Z" transform="translate(2)"/><path class="cls-31" d="M1102.08,1456.59c-7.11,3.33-14.64,5.35-22.23,7.21a132.36,132.36,0,0,1,21.77-7.75A1.7,1.7,0,0,0,1102.08,1456.59Z" transform="translate(2)"/><path class="cls-17" d="M426.19,1481a6.4,6.4,0,0,1,.95,3.79c-3.95-3-5.22-7.81-8.63-12.59C423.19,1474.34,423.35,1478.81,426.19,1481Z" transform="translate(2)"/><path class="cls-32" d="M914.51,1208.34c-.74,1.67-2.23,2.23-4,2.48-1.23.17-2.36-.08-2.43-1.4-.1-2.2,2-2,3.31-2.45a2.18,2.18,0,0,1,2.93,1C914.42,1208.09,914.47,1208.21,914.51,1208.34Z" transform="translate(2)"/><path class="cls-33" d="M900,1212.13a7.84,7.84,0,0,1-5,2.78c-.71.14-1.15-.76-.94-1.29.74-2.19,2.59-3,4.73-3.16C899.44,1210.4,900.13,1211,900,1212.13Z" transform="translate(2)"/><path class="cls-34" d="M944.79,1212.84c-.54.1-1,.35-1.41.22-1.72-.6-3.78-.71-4.57-2.84-.22-.6.11-1.45.83-1.3C942,1209.36,944.4,1209.7,944.79,1212.84Z" transform="translate(2)"/><path class="cls-4" d="M530.18,1685.38c-1.89-5.32-.55-10.8-.77-16.2C531,1674.48,530,1679.94,530.18,1685.38Z" transform="translate(2)"/><path class="cls-20" d="M453.63,1577.49c.13,2.23-.85,4.14-1.49,6.5-2-1.21-2.28-2.84-2.28-4.53C451.45,1579.48,452.32,1578.08,453.63,1577.49Z" transform="translate(2)"/><path class="cls-14" d="M895.58,1795.07v-.88c3.52,0,7.06-.27,10.41,1.46C902.34,1797,899,1795,895.58,1795.07Z" transform="translate(2)"/><path class="cls-35" d="M930.48,1209.68l-6.91-1.55.27-1.36C926,1206.52,928.38,1205.47,930.48,1209.68Z" transform="translate(2)"/><path class="cls-36" d="M950.66,1213.7a8,8,0,0,1,5.68,4.79C953.31,1218.28,951.92,1216.87,950.66,1213.7Z" transform="translate(2)"/><path class="cls-37" d="M885.17,1220.93c-1.15-2.69.66-3.57,2.16-4.51a.89.89,0,0,1,1.2.38,1,1,0,0,1,.1.42C888.45,1219.33,886.74,1220,885.17,1220.93Z" transform="translate(2)"/><path class="cls-1" d="M755.87,2030.13a2.6,2.6,0,0,1-2,2.16c-1,.22-2.2-.28-2.28-1.07-.17-1.57,1.53-1.61,2.54-2.07C754.83,2028.82,755.52,2029.24,755.87,2030.13Z" transform="translate(2)"/><path class="cls-1" d="M745.74,2030c-.11,1.23-.64,1.53-1.29,1.47a1.81,1.81,0,0,1-1.89-1.66c-.06-.84.46-1.66,1.37-1.31A6.71,6.71,0,0,1,745.74,2030Z" transform="translate(2)"/><path class="cls-38" d="M783,1763c-17.12-1.57-34.24-3.23-51.38-4.68-7.86-.66-15.64.49-23.37,1.89-6.06,0-11.86,2.53-18,1.85,1.13-3.91,5-2.26,7.36-3.71-5.32-5.62-8.44-6.62-15.52-4.46a17.1,17.1,0,0,1-7.44.85c-8.46-1.24-16.19,1.06-23.66,4.59a20.75,20.75,0,0,1-6,1.37,14.67,14.67,0,0,0-6.63,2.3c2.41,1,4.31.21,6.19,0,3.44-.31,6.95-.88,9.79,1.89-2.84,2-6.24,1.84-9.47,2.27-9.28,1.26-18,5.89-27.54,5.23-16.14-1.09-32.26.83-48.39.05-8.52-.41-17-.76-25.62.74-3.11.54-7.21-3.89-7.34-7.18,0-1.38.37-2.84-.94-4-2.92-5.17-2.84-10.73-1.9-16.32.47-2.79.82-5.52,0-8.27-1.58-5-.72-10.05-.87-15.14,1.33-1.9,2.84-3.89,5.18-1.57,4.46,4.47,10.35,5.16,16,6A72.87,72.87,0,0,1,564,1729.3a32.87,32.87,0,0,0,14.59,1.68c6.63-.86,13.57.26,20.3-.34,7.57-.66,15.32.5,22.87-3a22.33,22.33,0,0,1,14.29-1c3.88,1,8.15.44,12.24.39a90.83,90.83,0,0,1,28.64,4.63,7.27,7.27,0,0,1,2.62,1c8.31,6.87,18.71,4.88,28.2,6.62a97.07,97.07,0,0,1,12.78,3.09c14.11,4.61,28.39,8.71,42.68,12.58C769.92,1756.7,777.52,1757.45,783,1763Z" transform="translate(2)"/><path class="cls-39" d="M533.13,1737.37c1.37,1.26.94,2.93.89,4.45a150.54,150.54,0,0,0,1,20.14v6.92c-1.71-.2-3.43-2.69-4.79.45-.64,1.48-3.06,1.18-4.81,1.16-14.39-.2-28.69-2-43-2.68-3.39-.17-6.83.67-10.24.73-5.6.11-6.54-1.11-7.21-6.62-1.08-9.13-2.48-18.22-3.71-27.33a26.9,26.9,0,0,1,0-2.84c1.55-4.85,1.3-9.38-2.47-13.25-.85-.86-.82-2-1.27-2.94l-1-1.89c1.89-4-.31-7.63-.95-11.4,3.79-.75,3.79-3.74,3.72-6.54,0-8.52-2.84-16.93-1.89-25.55,2.28-.18,1.5,2.4,3.13,3.32a77.23,77.23,0,0,0-1.62-13c-1.13-4.79-.74-9.67-1.25-14.5a4.33,4.33,0,0,1,1.65-4.13c1.74,2.33.42,5.63,2.5,7.89.64.7,1,1.62,2.19,1.37a2,2,0,0,0,1.76-1.89c-.35-3.11.75-6,.53-9.24a66.27,66.27,0,0,1,.85-18.22c1.26-6-.06-11.63-.64-17.24-.8-7.74-1.33-15.54-2.31-23.29s-3-15.08-3.93-22.66c1.28.6,1.63,1.7,1.89,3a220.93,220.93,0,0,1,5.6,40.22c.32,8.8,2.91,17.2,4.18,25.82,1.24,8.42.19,17,.31,25.42.14,9.83-4.4,19.49-.11,29.57,2.06,4.87-.12,10.57-.78,15.84-1,7.58-2.2,15.15-1.75,22.88a16.62,16.62,0,0,0,1.29,5.94c.88,2,1.49,5.16,4.73,3.69s4.4-4.52,2.54-7.4c-3.93-6.09-4.37-12.82-3.58-19.47.47-3.93,2.39-7.83,1.6-11.88-1.73-8.94.72-17.83.06-26.74-.32-4.41,1.08-7.78,5.54-9.27,2.09-.69,2.2-1.58.49-2.79-.95-.64-1.89-1.14-2.12-2.38a5.09,5.09,0,0,1,1.3-4.8,2.33,2.33,0,0,1,3.06-.12c1.9,1.32,4,4,2.84,5.42-3.58,4.32-.58,8.94-1.25,13.33a114.12,114.12,0,0,0-1.4,17.8c.07,8.81,2.33,17.37,2.67,26.13.16,4,1.06,8.18-.95,12.06-1.39,2.71.23,5.23.7,7.75.62,3.45-.31,4.87-3.59,3.36-4.09-1.9-5.68,3.36-9.22,2.92-.53-.07-.88,1.81-.21,2.92.56,1,1.13,1.55,2.23.82,3.49-2.31,4.49.78,5.38,2.84s.85,4.27,1.18,6.44a3.89,3.89,0,0,0,4.28,3.45h.08c2.33-.1,2.43-2.07,2-3.92-.18-.76-.71-1.61.14-2.12s1.75.08,2.54.67a28,28,0,0,1,6.63,6.55c1.47,2.14,2.84,2.18,3.67-.76,1.15-3.94,2.58-7.57,8.11-5.31,1.24.51,2.3-1.42,3.15-2.5s.48-1.9-.49-2.84c-3.1-3.13-3.6-7.57-5.33-11.36-.94-2.07.17-4,2-5.37,2.84-2.1,2.77-4.47.39-6.62-4.66-4.24-4.53-10.75-7.73-15.72-1.56-2.4.64-5.41.94-8.18a47.31,47.31,0,0,1,1.2-5.5c.4-1.72.15-4.58,2.52-4.21s1.31,3.16,1.41,4.95c.27,4.37-.48,8.79.9,13.12s4,5.68,7.63,3.28c1.78-1.2,4-.88,5.58-2.34,1.25-1.13,1.9.17,2.45,1.12,2.55,4.17,3.05,8.77,2.77,13.5-.33,5.28-1.57,10.58,2,15.45a5.84,5.84,0,0,1,.74,5.83,4.45,4.45,0,0,0,1.8,5.68C533.67,1742.24,532.83,1739.73,533.13,1737.37Z" transform="translate(2)"/><path class="cls-1" d="M654.26,1764.87c-5.09-1.84-10.19-.3-15.29-.06-1.12.06-2.9.66-3.15-1.06-.2-1.28,1.23-2,2.34-2.66a5.12,5.12,0,0,1,1.73-.74c9.32-1.07,17.62-5.86,26.81-7.43a13.9,13.9,0,0,1,5.06.21,18.21,18.21,0,0,0,9.71-.43c5.27-1.89,10.41-2.22,14.7,2.42a22.89,22.89,0,0,0,4,2.71c-2.34,4-7.37,1.16-9.93,4.16h-6.62c-3.14.47-6.46-.86-9.47,1h-9.46c-3.41,1-7.14.19-10.41,1.89Z" transform="translate(2)"/><path class="cls-20" d="M457.42,1715.58c1.12.79,1.35,2.51,3,2.84,2.16.41,2.84,1.55,1.95,3.68a3.76,3.76,0,0,0,.56,3.56c1.7,2.7,1,4.68-1.72,6.09-1.71-4.51-3.55-8.7-7-12.49C449.6,1714.05,457,1717.47,457.42,1715.58Z" transform="translate(2)"/><path class="cls-38" d="M674.13,1762.91c2.84-3.33,6.18-2,9.47-1C680.58,1764,677.29,1762.88,674.13,1762.91Z" transform="translate(2)"/><path class="cls-38" d="M654.26,1764.87c3-3.29,6.78-2.17,10.41-1.89C661.42,1764.92,657.84,1764.87,654.26,1764.87Z" transform="translate(2)"/><path class="cls-4" d="M459.31,1641.84a72.77,72.77,0,0,0,1.35,20.82,94.83,94.83,0,0,1,1.42,10.61c.12,1.24.68,3.19-1.42,3.36-1.8.16-2.21-1.37-2.29-2.89-.07-1.22.26-2.56-.95-3.47-.95-10.27-1.68-20.62-.82-30.86,1.58-18.73.33-37.44.84-56.16h1.81Q459.31,1612.52,459.31,1641.84Z" transform="translate(2)"/><path class="cls-40" d="M669.48,1391a4.33,4.33,0,0,1,0-.72c1.39-.63,2.16-2.37,4.11-2.23,1.1,1.16.41,2.64.41,3.94,0,1.59.74,4.13-1.58,4.25-2,.1-2.12-2.28-2.32-4A4,4,0,0,0,669.48,1391Z" transform="translate(2)"/></g></svg>