<!-- sample rectangle -->
<svg version="1.1" viewBox="0 0 400 400" xmlns="http://www.w3.org/2000/svg">
  <g transform="translate(-1180,40)">
    <path d="M1495.5,21.9c-2.5-7.7-8-13.7-14.8-17.1c-6.8-3.4-14.8-4.2-28.2,0.3l-151.6,50.5
      c-13.3,4.4-19.3,9.9-22.7,16.7s-4.2,14.8-1.6,22.6c2.5,7.7,8,13.7,14.8,17.1c6.8,3.4,14.8,4.2,28.2-0.3l151.6-50.5
      c13.3-4.4,19.3-9.9,22.7-16.7C1497.3,37.7,1498.1,29.7,1495.5,21.9z"></path>
    <path d="M1495.5,115.5c-2.5-7.7-8-13.7-14.8-17.1c-6.8-3.4-14.8-4.2-28.2,0.3l-151.6,50.5
      c-13.3,4.4-19.3,9.9-22.7,16.7c-3.4,6.8-4.2,14.8-1.6,22.6c2.5,7.7,8,13.7,14.8,17.1c6.8,3.4,14.8,4.2,28.2-0.3l151.6-50.5
      c13.3-4.4,19.3-9.9,22.7-16.7C1497.3,131.3,1498.1,123.3,1495.5,115.5z"></path>
    <path d="M1495.5,209.1c-2.5-7.7-8-13.7-14.8-17.1c-6.8-3.4-14.8-4.2-28.2,0.3l-151.6,50.5
      c-13.3,4.4-19.3,9.9-22.7,16.7c-3.4,6.8-4.2,14.8-1.6,22.6c2.5,7.7,8,13.7,14.8,17.1s14.8,4.2,28.2-0.3l151.6-50.5
      c13.3-4.5,19.3-9.9,22.7-16.7C1497.3,224.9,1498.1,216.9,1495.5,209.1z"></path>
  </g>
</svg>
