<?xml version="1.0" encoding="UTF-8"?>
<svg xmlns="http://www.w3.org/2000/svg" version="1.1" viewBox="0 0 1024 1024">
  <!-- Generator: Adobe Illustrator 29.8.2, SVG Export Plug-In . SVG Version: 2.1.1 Build 3)  -->
  <defs>
    <style>
      .st0, .st1 {
        fill: none;
      }

      .st0, .st1, .st2, .st3 {
        stroke-miterlimit: 10;
      }

      .st0, .st1, .st3, .st4 {
        display: none;
      }

      .st0, .st2, .st3 {
        stroke: #000;
      }

      .st1 {
        stroke: #fff;
      }

      .st5 {
        fill: #f66509;
      }

      .st6 {
        fill: #39c6bb;
      }

      .st7 {
        fill: #fdfbf8;
      }

      .st8 {
        fill: #0a0a09;
      }
    </style>
  </defs>
  <g id="Layer_2" class="st4">
    <g class="st4">
      <g>
        <path class="st7" d="M1024,0v1024H0V0h1024ZM785.87,381.85c1.82-3.1-14.88-25.6-17.9-29.33-55.79-68.94-165.99-77.14-240.64-35.7-148.19,82.27-120.62,337.93,48.85,378.5,84.28,20.18,171.64-10.97,212.74-88.72l-60.58-39.5c-2.08-.2-5.98,8.06-7.52,10.21-62.15,87.48-187.4,55.39-207.52-47.11-8-40.75-2.15-88.4,23.29-122.12,42.74-56.65,130.4-59.03,174.39-2.56,3.01,3.87,8.46,14.5,10.53,16.48.6.57,1,1.18,1.97,1.03l62.4-41.18ZM326,297h-79v394h254c-16.83-12.85-32.7-26.92-45.97-43.53-7.78-9.74-13.88-20.65-21.53-30.47h-107.5v-320ZM656,421h-21l-40,151h19.5l41.5-151ZM585.99,555c-.54-5.15,6.37-16.95,4.52-20.96l-34.44-35.67,34.44-35.39c1.09-2.37-4.86-21.95-6.02-21.95l-56.48,57.48,57.98,56.5ZM667.98,441.01c-1.05-.07-1.42-.51-1.98.61-.85,1.7-4.59,16-4.81,18.18-.12,1.12-.43,2.14.29,3.17l34.5,35.53-35.48,35.53c-1.82,2.91,4.38,20.81,5.99,20.94l56.29-56.48-54.8-57.48Z"/>
        <path class="st8" d="M785.87,381.85l-62.4,41.18c-.97.15-1.37-.46-1.97-1.03-2.07-1.97-7.51-12.61-10.53-16.48-43.99-56.48-131.65-54.09-174.39,2.56-25.44,33.72-31.29,81.37-23.29,122.12,20.12,102.5,145.36,134.59,207.52,47.11,1.53-2.16,5.43-10.41,7.52-10.21l60.58,39.5c-41.1,77.75-128.46,108.9-212.74,88.72-169.47-40.57-197.04-296.23-48.85-378.5,74.65-41.44,184.86-33.24,240.64,35.7,3.02,3.73,19.72,26.23,17.9,29.33Z"/>
        <path class="st8" d="M326,297v320h107.5c7.65,9.83,13.74,20.73,21.53,30.47,13.27,16.61,29.14,30.68,45.97,43.53h-254v-394h79Z"/>
        <polygon class="st5" points="656 421 614.5 572 595 572 635 421 656 421"/>
        <path class="st5" d="M667.98,441.01l54.8,57.48-56.29,56.48c-1.61-.13-7.81-18.03-5.99-20.94l35.48-35.53-34.5-35.53c-.73-1.03-.41-2.06-.29-3.17.23-2.18,3.97-16.47,4.81-18.18.56-1.12.93-.68,1.98-.61Z"/>
        <path class="st5" d="M585.99,555l-57.98-56.5,56.48-57.48c1.16,0,7.11,19.58,6.02,21.95l-34.44,35.39,34.44,35.67c1.85,4.02-5.06,15.82-4.52,20.96Z"/>
      </g>
    </g>
    <rect class="st0" x="643.35" y="363.9" width="295.21" height="295.21"/>
    <rect class="st0" x="698.99" y="421.01" width="183.93" height="183.93"/>
    <line class="st1" x1="836.94" y1="408.34" x2="894.06" y2="408.34"/>
  </g>
  <g id="Layer_1">
    <path class="st2" d="M763.1,603.66c-23.33,23.33-55.56,37.76-91.16,37.76-71.2,0-128.92-57.72-128.92-128.92s57.72-128.92,128.92-128.92c35.94,0,68.44,14.71,91.82,38.43,0,0,57.12-57.12,57.12-57.12-37.88-37.88-90.22-61.31-148.02-61.31-115.61,0-209.33,93.72-209.33,209.33s93.72,209.33,209.33,209.33c57.47,0,109.54-23.16,147.37-60.66h0s-57.27-57.78-57.27-57.78l.15-.15Z"/>
    <path class="st2" d="M347.12,302.75v338.17h115.84c19.89,32.92,47.25,60.82,79.74,81.33h-279.73v-419.5h84.15Z"/>
    <polyline class="st3" points="866.87 409.72 821.96 364.65 764.84 421.77 854.76 512.76 764.18 603.42 821.31 661.35 969.56 512.76 866.87 409.72"/>
    <polygon class="st6" points="866.87 615.98 969.56 513.06 866.87 410.02 809.88 467.65 854.76 513.06 809.88 557.98 866.87 615.98"/>
    <polygon class="st6" points="182.66 615.98 79.97 513.06 182.66 410.02 239.65 467.65 194.77 513.06 239.65 557.98 182.66 615.98"/>
  </g>
</svg>